<?xml version="1.0" encoding="utf-8"?>
<!-- Generator: Adobe Illustrator 26.3.1, SVG Export Plug-In . SVG Version: 6.00 Build 0)  -->
<svg version="1.1" id="Camada_1" xmlns="http://www.w3.org/2000/svg" xmlns:xlink="http://www.w3.org/1999/xlink" x="0px" y="0px"
	 viewBox="0 0 1338.35 169.87" style="enable-background:new 0 0 1338.35 169.87;" xml:space="preserve">
<g>
	<path d="M103.68,23.11c3.35,0.68,6.76,0.92,10.09,1.76c6.89,1.73,13.3,4.49,19.28,8.31c0.98,0.63,1.1,1.08,0.51,2.1
		c-5.35,9.38-10.66,18.79-15.91,28.22c-0.65,1.16-1.05,0.95-1.93,0.3c-9.19-6.84-19.16-8.01-29.36-2.91
		c-10.24,5.12-15.28,13.86-15.13,25.27c0.17,13.14,9.36,24.02,22.02,26.51c2.01,0.4,4.06,0.47,6.12,0.47
		c45.74,0.01,91.49,0.03,137.23,0.04c119.27,0.02,238.55,0.03,357.82,0.09c1.76,0,2.27-0.34,2.26-2.2
		c-0.07-26.67-0.03-53.35-0.09-80.02c0-1.76,0.44-2.18,2.18-2.15c7.23,0.11,14.46,0.08,21.7,0.02c1.36-0.01,2.32,0.36,3.29,1.35
		c15.65,16.08,31.36,32.11,47.01,48.2c1.19,1.23,1.74,1.33,2.95-0.02c14.41-15.92,28.91-31.76,43.32-47.69
		c1.25-1.38,2.49-1.9,4.33-1.87c8.07,0.1,16.15,0.1,24.23,0c1.69-0.02,2.19,0.33,2.19,2.12c-0.07,26.73-0.03,53.47-0.08,80.2
		c0,1.61,0.37,2.05,2.03,2.05c150.13-0.04,300.27-0.04,450.4-0.04c0.6,0,1.19,0,2.33,0c-19.8-14.18-39.22-28.08-58.65-41.99
		c-0.56,0.61-0.31,1.23-0.31,1.78c-0.02,9.97-0.03,19.95,0.01,29.92c0.01,1.23-0.14,1.78-1.62,1.76
		c-8.56-0.08-17.12-0.06-25.67-0.01c-1.25,0.01-1.61-0.32-1.61-1.59c0.04-24.15,0.04-48.3,0-72.45c0-1.3,0.28-1.75,1.68-1.74
		c8.5,0.07,17,0.06,25.49,0c1.28-0.01,1.6,0.37,1.59,1.61c-0.05,9.97-0.03,19.93-0.03,30.06c0.87-0.28,1.33-0.92,1.86-1.42
		c10.28-9.71,20.56-19.42,30.82-29.14c0.67-0.63,1.28-1.11,2.32-1.11c8.8,0.05,17.6,0.03,26.4,0.03c0.21,0,0.43,0,0.71,0
		c-0.17,0.89-0.8,1.21-1.24,1.65c-9.71,9.69-19.42,19.39-29.19,29.01c-1.16,1.14-1.02,1.54,0.25,2.39
		c41.56,27.74,83.1,55.51,124.65,83.28c0.58,0.39,1.14,0.79,2.12,1.47c-1.09,0-1.72,0-2.35,0c-75.34-0.02-150.67-0.04-226.01-0.07
		c-33.99-0.01-67.98-0.03-101.98-0.05c-51.23-0.04-102.46-0.09-153.69-0.12c-34.65-0.03-69.31-0.06-103.97-0.03
		c-1.68,0-2.19-0.32-2.18-2.11c0.08-17.24,0.05-34.48,0.05-51.73c0-0.58,0-1.17,0-2.19c-0.82,0.88-1.37,1.47-1.92,2.06
		c-12.17,13.24-24.36,26.47-36.48,39.76c-1.08,1.18-1.52,1.02-2.51-0.06c-12.28-13.39-24.61-26.72-36.94-40.06
		c-0.43-0.46-0.73-1.1-1.61-1.33c0,0.64,0,1.21,0,1.79c0,17.3-0.02,34.6,0.04,51.91c0.01,1.58-0.36,1.96-1.96,1.96
		c-177.44-0.04-354.87,0.02-532.31-0.1c-24.98-0.02-43.9-11.19-55.4-33.47c-15.3-29.62-2.69-67.49,27.06-82.67
		c7.37-3.76,15.12-6.15,23.38-6.84c0.35-0.03,0.73,0.02,1-0.29C97.41,23.11,100.55,23.11,103.68,23.11z"/>
	<path d="M359.68,63.51c0-0.97,0-1.55,0-2.13c0-10.27,0.02-20.54-0.03-30.82c-0.01-1.24,0.3-1.62,1.59-1.61
		c8.14,0.06,16.27,0.05,24.41,0.01c1.18-0.01,1.52,0.33,1.52,1.52c-0.03,24.21-0.04,48.42,0,72.63c0,1.31-0.42,1.57-1.64,1.56
		c-7.35-0.05-14.7-0.05-22.06,0c-1.1,0.01-1.76-0.45-2.46-1.17c-12.42-12.76-24.86-25.5-37.29-38.26c-0.45-0.46-0.81-1.01-1.22-1.52
		c-0.14,0.07-0.28,0.14-0.42,0.21c-0.03,0.62-0.08,1.24-0.08,1.86c0,12.31-0.04,24.63,0.04,36.94c0.01,1.64-0.46,1.96-2.01,1.95
		c-7.95-0.08-15.91-0.08-23.86,0c-1.4,0.01-1.66-0.4-1.66-1.71c0.04-24.09,0.04-48.18-0.01-72.27c0-1.49,0.48-1.76,1.84-1.75
		c7.17,0.06,14.34,0.05,21.51,0.01c1.1-0.01,1.91,0.3,2.74,1.02c12.53,10.8,25.09,21.57,37.64,32.35
		C358.61,62.63,358.98,62.93,359.68,63.51z"/>
	<path d="M459.87,66.89c0-12.01,0.02-24.03-0.03-36.04c-0.01-1.43,0.25-1.93,1.83-1.92c19.58,0.06,39.17,0.05,58.75,0.01
		c1.36,0,1.89,0.27,1.85,1.76c-0.11,3.9-0.11,7.81,0,11.71c0.04,1.42-0.44,1.65-1.73,1.64c-9.34-0.05-18.68,0-28.02-0.06
		c-1.32-0.01-1.74,0.27-1.71,1.66c0.1,3.9,0.11,7.81,0,11.71c-0.04,1.59,0.31,2.14,2.04,2.12c8.74-0.1,17.47-0.01,26.21-0.08
		c1.47-0.01,1.96,0.33,1.91,1.86c-0.12,3.54-0.11,7.09,0,10.63c0.05,1.53-0.28,2.04-1.95,2.02c-8.8-0.1-17.6-0.02-26.39-0.07
		c-1.35-0.01-1.87,0.25-1.83,1.74c0.11,4.08,0.1,8.17,0.01,12.25c-0.03,1.4,0.33,1.82,1.78,1.81c9.64-0.07,19.28,0.01,28.92-0.07
		c1.63-0.01,2.02,0.44,1.97,2.01c-0.12,3.84-0.07,7.69-0.02,11.53c0.02,1.1-0.19,1.56-1.46,1.56c-20.25-0.04-40.49-0.04-60.74,0
		c-1.29,0-1.43-0.48-1.43-1.55C459.88,91.03,459.87,78.96,459.87,66.89z"/>
	<path d="M220.13,66.93c0,12.01-0.02,24.02,0.03,36.02c0.01,1.29-0.24,1.72-1.65,1.71c-8.25-0.08-16.5-0.07-24.75-0.01
		c-1.27,0.01-1.59-0.32-1.59-1.59c0.04-24.14,0.04-48.27,0-72.41c0-1.29,0.24-1.75,1.66-1.74c8.25,0.07,16.5,0.07,24.75,0.01
		c1.3-0.01,1.58,0.4,1.57,1.62C220.11,42.68,220.13,54.8,220.13,66.93z"/>
	<path d="M1056.74,102.17c-4.54-8.59-9.03-17.2-13.65-25.74c-2.04-3.76-4.88-6.83-9.1-8.87c1.68-0.84,3.16-1.5,4.55-2.29
		c4-2.29,7.14-5.34,8.31-9.95c1.92-7.54-0.17-17.33-11.28-22.08c-6.29-2.68-12.95-3.69-19.7-3.97c-15.54-0.66-31.08-0.14-46.63-0.34
		c-1.48-0.02-1.61,0.54-1.61,1.77c0.03,23.48,0.04,46.96-0.01,70.45c0,1.5,0.49,1.73,1.82,1.72c8.98-0.05,17.95-0.06,26.93,0
		c1.33,0.01,1.71-0.28,1.7-1.66c-0.07-8.65-0.04-17.3-0.04-25.94c0-3.39,0-3.31,3.37-3.39c5.26-0.13,9.35,1.86,12.16,6.34
		c1.08,1.73,2.24,3.42,3.2,5.21c3.17,5.92,6.31,11.86,9.36,17.84c0.6,1.17,1.24,1.62,2.58,1.61c8.86-0.06,17.71-0.03,26.57-0.03
		c0.52,0,1.04,0,1.64,0C1056.83,102.5,1056.81,102.32,1056.74,102.17z M1018.04,53.27c-0.75,2.71-2.63,4.18-5.2,4.97
		c-3.74,1.15-7.6,0.99-11.45,1.01c-3.38,0.02-3.38,0-3.38-3.34c0-1.74,0-3.48,0-5.21c0-2.46,0-4.92,0-7.37
		c0-0.58-0.16-1.24,0.82-1.22c4.44,0.1,8.91-0.35,13.27,0.82C1017.12,44.27,1019.4,48.3,1018.04,53.27z"/>
	<path d="M912.17,101.7c-12.23-23.85-24.47-47.7-36.66-71.57c-0.5-0.99-1.12-1.18-2.11-1.18c-9.1,0.03-18.2,0.04-27.3-0.01
		c-1.13-0.01-1.69,0.37-2.2,1.35c-12.44,23.75-24.92,47.47-37.38,71.21c-0.2,0.38-0.65,0.73-0.32,1.33c9.2,0,18.42-0.01,27.63,0.02
		c0.91,0,1.23-0.42,1.55-1.15c1.56-3.44,3.22-6.83,4.76-10.28c0.43-0.96,0.97-1.28,2.02-1.27c11.57,0.04,23.14,0.05,34.71-0.01
		c1.18-0.01,1.69,0.43,2.11,1.43c1.4,3.31,2.94,6.57,4.31,9.89c0.44,1.05,0.98,1.4,2.12,1.39c8.62-0.05,17.24-0.03,25.85-0.03
		c0.4,0,0.81-0.04,1.36-0.06C912.45,102.34,912.33,102.01,912.17,101.7z M870.94,76.05c-7.35,0.01-14.7,0-22.05,0.01
		c-0.92,0-1.72,0.16-1.05-1.28c3.96-8.53,7.85-17.1,11.97-26.09c4.13,9.28,8.09,18.17,12,26.96
		C871.55,76.18,871.21,76.05,870.94,76.05z"/>
</g>
</svg>
