<?xml version="1.0" encoding="utf-8"?>
<!-- Generator: Adobe Illustrator 26.3.1, SVG Export Plug-In . SVG Version: 6.00 Build 0)  -->
<svg version="1.1" id="Camada_1" xmlns="http://www.w3.org/2000/svg" xmlns:xlink="http://www.w3.org/1999/xlink" x="0px" y="0px"
	 viewBox="0 0 3782.11 454.34" style="enable-background:new 0 0 3782.11 454.34;" xml:space="preserve">
<g>
	<path d="M235.92,46.23c9.79,1.99,19.79,2.71,29.53,5.15c20.16,5.06,38.94,13.14,56.44,24.31c2.87,1.83,3.21,3.16,1.5,6.16
		c-15.66,27.46-31.2,54.99-46.58,82.6c-1.9,3.41-3.08,2.79-5.64,0.88c-26.9-20.03-56.08-23.43-85.94-8.5
		c-29.96,14.98-44.71,40.58-44.27,73.97c0.51,38.45,27.4,70.31,64.44,77.59c5.89,1.16,11.89,1.36,17.9,1.36
		c133.89,0.02,267.78,0.09,401.67,0.11c349.1,0.05,698.2,0.08,1047.3,0.25c5.16,0,6.63-0.99,6.62-6.44
		c-0.21-78.07-0.09-156.14-0.27-234.21c-0.01-5.15,1.3-6.37,6.37-6.29c21.16,0.31,42.34,0.22,63.5,0.05
		c3.99-0.03,6.8,1.05,9.64,3.97c45.81,47.07,91.8,93.98,137.58,141.09c3.5,3.6,5.09,3.88,8.65-0.05
		c42.17-46.61,84.6-92.97,126.78-139.57c3.66-4.05,7.29-5.55,12.68-5.48c23.63,0.29,47.28,0.28,70.91,0c4.96-0.06,6.42,0.95,6.4,6.2
		c-0.2,78.25-0.09,156.49-0.24,234.74c-0.01,4.72,1.07,5.99,5.95,5.99c439.42-0.12,878.84-0.12,1318.26-0.12c1.74,0,3.49,0,6.82,0
		c-57.97-41.5-114.78-82.18-171.66-122.9c-1.63,1.79-0.89,3.61-0.9,5.22c-0.06,29.19-0.1,58.38,0.03,87.57
		c0.02,3.6-0.41,5.2-4.74,5.16c-25.05-0.24-50.1-0.19-75.15-0.03c-3.67,0.02-4.72-0.94-4.72-4.66c0.11-70.69,0.11-141.37,0-212.06
		c-0.01-3.82,0.82-5.12,4.93-5.09c24.87,0.2,49.75,0.18,74.62,0.01c3.76-0.03,4.68,1.07,4.66,4.72
		c-0.15,29.17-0.08,58.34-0.08,87.99c2.56-0.82,3.88-2.7,5.43-4.16c30.1-28.41,60.18-56.84,90.22-85.3
		c1.96-1.86,3.74-3.25,6.78-3.23c25.75,0.14,51.51,0.08,77.26,0.08c0.62,0,1.25,0,2.08,0c-0.5,2.59-2.33,3.54-3.63,4.83
		c-28.43,28.36-56.84,56.74-85.45,84.92c-3.39,3.34-2.98,4.5,0.74,6.99c121.66,81.18,243.24,162.48,364.82,243.76
		c1.69,1.13,3.34,2.32,6.2,4.31c-3.19,0-5.04,0-6.89,0c-220.5-0.06-441.01-0.12-661.51-0.19c-99.49-0.03-198.98-0.08-298.47-0.15
		c-149.94-0.11-299.88-0.25-449.82-0.36c-101.43-0.08-202.86-0.17-304.29-0.08c-4.92,0-6.4-0.93-6.37-6.18
		c0.24-50.46,0.14-100.93,0.14-151.4c0-1.71,0-3.42,0-6.42c-2.39,2.58-4.01,4.3-5.61,6.04c-35.62,38.76-71.29,77.48-106.76,116.37
		c-3.16,3.47-4.44,2.99-7.34-0.18c-35.94-39.18-72.04-78.22-108.13-117.26c-1.25-1.35-2.13-3.22-4.71-3.89c0,1.88,0,3.55,0,5.22
		c0,50.64-0.07,101.28,0.12,151.92c0.02,4.62-1.07,5.74-5.74,5.74c-519.33-0.12-1038.66,0.06-1557.99-0.3
		c-73.11-0.05-128.48-32.74-162.15-97.95c-44.77-86.71-7.87-197.52,79.2-241.95c21.58-11.01,44.25-18,68.44-20.01
		c1.02-0.08,2.13,0.06,2.92-0.85C217.58,46.23,226.75,46.23,235.92,46.23z"/>
	<path d="M985.19,164.45c0-2.83,0-4.54,0-6.25c0-30.07,0.06-60.13-0.08-90.2c-0.02-3.62,0.88-4.75,4.65-4.73
		c23.81,0.17,47.63,0.15,71.44,0.01c3.47-0.02,4.45,0.96,4.45,4.44c-0.1,70.86-0.11,141.71,0.01,212.57
		c0.01,3.84-1.24,4.59-4.79,4.56c-21.52-0.15-43.04-0.15-64.56,0.01c-3.21,0.02-5.14-1.33-7.19-3.43
		c-36.36-37.35-72.77-74.64-109.15-111.97c-1.32-1.35-2.38-2.96-3.56-4.45c-0.41,0.2-0.82,0.4-1.24,0.6
		c-0.08,1.81-0.23,3.63-0.23,5.44c-0.01,36.04-0.12,72.09,0.12,108.13c0.03,4.8-1.33,5.75-5.87,5.7c-23.28-0.24-46.57-0.22-69.85,0
		c-4.09,0.04-4.86-1.17-4.86-4.99c0.12-70.51,0.13-141.01-0.02-211.52c-0.01-4.37,1.41-5.15,5.38-5.11
		c20.99,0.18,41.98,0.15,62.97,0.02c3.22-0.02,5.58,0.88,8.02,2.98c36.68,31.62,73.44,63.15,110.18,94.69
		C982.08,161.89,983.17,162.77,985.19,164.45z"/>
	<path d="M1278.45,174.35c0-35.16,0.07-70.32-0.09-105.48c-0.02-4.19,0.74-5.64,5.36-5.62c57.32,0.18,114.64,0.15,171.96,0.04
		c3.99-0.01,5.53,0.78,5.41,5.15c-0.32,11.42-0.32,22.86,0,34.28c0.12,4.15-1.28,4.83-5.05,4.8c-27.34-0.16-54.67,0-82.01-0.18
		c-3.86-0.02-5.11,0.79-5,4.86c0.31,11.42,0.32,22.86,0,34.28c-0.13,4.65,0.91,6.25,5.98,6.19c25.57-0.29,51.15-0.03,76.72-0.23
		c4.3-0.03,5.74,0.96,5.58,5.45c-0.35,10.36-0.34,20.75-0.01,31.11c0.14,4.47-0.81,5.96-5.69,5.91c-25.75-0.28-51.5-0.05-77.25-0.22
		c-3.96-0.03-5.47,0.74-5.35,5.1c0.33,11.95,0.29,23.91,0.02,35.86c-0.09,4.09,0.96,5.33,5.21,5.3c28.22-0.19,56.44,0.02,84.66-0.22
		c4.76-0.04,5.91,1.28,5.77,5.87c-0.35,11.24-0.21,22.5-0.05,33.75c0.05,3.23-0.56,4.57-4.27,4.56
		c-59.26-0.12-118.52-0.12-177.78,0.01c-3.77,0.01-4.18-1.41-4.17-4.55C1278.49,245.02,1278.45,209.68,1278.45,174.35z"/>
	<path d="M576.76,174.48c0,35.14-0.06,70.29,0.09,105.43c0.02,3.78-0.69,5.04-4.82,5c-24.15-0.22-48.3-0.19-72.45-0.02
		c-3.71,0.03-4.66-0.95-4.66-4.64c0.11-70.64,0.11-141.28,0.01-211.92c-0.01-3.77,0.7-5.13,4.86-5.09
		c24.15,0.22,48.3,0.19,72.45,0.01c3.82-0.03,4.61,1.17,4.6,4.74C576.71,103.49,576.76,138.98,576.76,174.48z"/>
	<path d="M3025.4,277.62c-13.29-25.13-26.44-50.34-39.97-75.35c-5.96-11.02-14.3-20-26.65-25.96c4.93-2.47,9.24-4.38,13.32-6.72
		c11.69-6.69,20.89-15.63,24.32-29.12c5.63-22.07-0.49-50.73-33.03-64.61c-18.42-7.86-37.9-10.79-57.66-11.63
		c-45.47-1.93-90.98-0.42-136.47-0.99c-4.34-0.05-4.73,1.57-4.72,5.17c0.09,68.73,0.12,137.46-0.04,206.19
		c-0.01,4.38,1.43,5.07,5.33,5.04c26.27-0.15,52.55-0.17,78.83,0.01c3.88,0.03,5.01-0.83,4.97-4.86c-0.21-25.31-0.1-50.62-0.1-75.94
		c0-9.93,0.01-9.69,9.88-9.93c15.4-0.37,27.37,5.44,35.6,18.55c3.17,5.05,6.55,10.01,9.36,15.26c9.28,17.32,18.46,34.71,27.4,52.2
		c1.75,3.43,3.63,4.75,7.56,4.72c25.92-0.19,51.84-0.1,77.77-0.1c1.52,0,3.03,0,4.81,0C3025.66,278.57,3025.63,278.05,3025.4,277.62
		z M2912.14,134.48c-2.18,7.95-7.69,12.24-15.21,14.54c-10.96,3.35-22.26,2.89-33.5,2.95c-9.89,0.06-9.89,0.01-9.89-9.77
		c0-5.09,0-10.18,0-15.26c0-7.19-0.01-14.39,0.01-21.58c0-1.69-0.45-3.63,2.4-3.57c12.98,0.29,26.07-1.02,38.85,2.41
		C2909.44,108.14,2916.13,119.96,2912.14,134.48z"/>
	<path d="M2602.28,276.24c-35.79-69.81-71.61-139.61-107.31-209.46c-1.48-2.89-3.29-3.46-6.19-3.46
		c-26.63,0.08-53.27,0.11-79.9-0.03c-3.3-0.02-4.95,1.09-6.45,3.96c-36.41,69.5-72.93,138.95-109.4,208.42
		c-0.58,1.11-1.91,2.14-0.93,3.9c26.92,0,53.9-0.04,80.88,0.06c2.66,0.01,3.59-1.24,4.55-3.35c4.58-10.06,9.42-20,13.93-30.09
		c1.26-2.82,2.83-3.73,5.92-3.72c33.87,0.12,67.73,0.13,101.6-0.02c3.45-0.02,4.93,1.26,6.18,4.19c4.11,9.69,8.6,19.22,12.63,28.94
		c1.28,3.08,2.86,4.1,6.19,4.08c25.22-0.15,50.45-0.08,75.67-0.09c1.18,0,2.36-0.11,3.99-0.19
		C2603.09,278.11,2602.75,277.14,2602.28,276.24z M2481.6,201.17c-21.51,0.03-43.03,0.01-64.54,0.04c-2.68,0-5.04,0.48-3.07-3.76
		c11.6-24.97,22.99-50.04,35.04-76.36c12.09,27.16,23.67,53.18,35.12,78.92C2483.38,201.55,2482.38,201.16,2481.6,201.17z"/>
</g>
</svg>
