<?xml version="1.0" encoding="utf-8"?>
<!-- Generator: Adobe Illustrator 26.3.1, SVG Export Plug-In . SVG Version: 6.00 Build 0)  -->
<svg version="1.1" id="Camada_1" xmlns="http://www.w3.org/2000/svg" xmlns:xlink="http://www.w3.org/1999/xlink" x="0px" y="0px"
	 viewBox="0 0 288.71 35.04" style="enable-background:new 0 0 288.71 35.04;" xml:space="preserve">
<g>
	<path d="M18.31,3.74c0.75,0.15,1.51,0.21,2.25,0.39c1.54,0.39,2.97,1,4.3,1.85c0.22,0.14,0.24,0.24,0.11,0.47
		c-1.19,2.09-2.38,4.19-3.55,6.29c-0.14,0.26-0.23,0.21-0.43,0.07c-2.05-1.53-4.27-1.78-6.54-0.65c-2.28,1.14-3.4,3.09-3.37,5.63
		c0.04,2.93,2.09,5.35,4.91,5.91c0.45,0.09,0.91,0.1,1.36,0.1c10.2,0,20.39,0.01,30.59,0.01c26.59,0,53.17,0.01,79.76,0.02
		c0.39,0,0.5-0.08,0.5-0.49c-0.02-5.95-0.01-11.89-0.02-17.84c0-0.39,0.1-0.48,0.49-0.48c1.61,0.02,3.22,0.02,4.84,0
		c0.3,0,0.52,0.08,0.73,0.3c3.49,3.58,6.99,7.16,10.48,10.74c0.27,0.27,0.39,0.3,0.66,0c3.21-3.55,6.44-7.08,9.65-10.63
		c0.28-0.31,0.55-0.42,0.97-0.42c1.8,0.02,3.6,0.02,5.4,0c0.38,0,0.49,0.07,0.49,0.47c-0.01,5.96-0.01,11.92-0.02,17.88
		c0,0.36,0.08,0.46,0.45,0.46c33.46-0.01,66.93-0.01,100.39-0.01c0.13,0,0.27,0,0.52,0c-4.41-3.16-8.74-6.26-13.07-9.36
		c-0.12,0.14-0.07,0.28-0.07,0.4c0,2.22-0.01,4.45,0,6.67c0,0.27-0.03,0.4-0.36,0.39c-1.91-0.02-3.82-0.01-5.72,0
		c-0.28,0-0.36-0.07-0.36-0.35c0.01-5.38,0.01-10.77,0-16.15c0-0.29,0.06-0.39,0.38-0.39c1.89,0.02,3.79,0.01,5.68,0
		c0.29,0,0.36,0.08,0.35,0.36c-0.01,2.22-0.01,4.44-0.01,6.7c0.19-0.06,0.3-0.21,0.41-0.32c2.29-2.16,4.58-4.33,6.87-6.5
		c0.15-0.14,0.28-0.25,0.52-0.25c1.96,0.01,3.92,0.01,5.88,0.01c0.05,0,0.1,0,0.16,0c-0.04,0.2-0.18,0.27-0.28,0.37
		c-2.17,2.16-4.33,4.32-6.51,6.47c-0.26,0.25-0.23,0.34,0.06,0.53c9.26,6.18,18.52,12.37,27.78,18.56c0.13,0.09,0.25,0.18,0.47,0.33
		c-0.24,0-0.38,0-0.52,0c-16.79,0-33.58-0.01-50.38-0.01c-7.58,0-15.15-0.01-22.73-0.01c-11.42-0.01-22.84-0.02-34.26-0.03
		c-7.72-0.01-15.45-0.01-23.17-0.01c-0.37,0-0.49-0.07-0.49-0.47c0.02-3.84,0.01-7.69,0.01-11.53c0-0.13,0-0.26,0-0.49
		c-0.18,0.2-0.31,0.33-0.43,0.46c-2.71,2.95-5.43,5.9-8.13,8.86c-0.24,0.26-0.34,0.23-0.56-0.01c-2.74-2.98-5.49-5.96-8.23-8.93
		c-0.1-0.1-0.16-0.25-0.36-0.3c0,0.14,0,0.27,0,0.4c0,3.86-0.01,7.71,0.01,11.57c0,0.35-0.08,0.44-0.44,0.44
		c-39.55-0.01-79.1,0-118.65-0.02c-5.57,0-9.78-2.49-12.35-7.46c-3.41-6.6-0.6-15.04,6.03-18.43c1.64-0.84,3.37-1.37,5.21-1.52
		c0.08-0.01,0.16,0,0.22-0.06C16.91,3.74,17.61,3.74,18.31,3.74z"/>
	<path d="M75.37,12.75c0-0.22,0-0.35,0-0.48c0-2.29,0-4.58-0.01-6.87c0-0.28,0.07-0.36,0.35-0.36c1.81,0.01,3.63,0.01,5.44,0
		c0.26,0,0.34,0.07,0.34,0.34c-0.01,5.4-0.01,10.79,0,16.19c0,0.29-0.09,0.35-0.36,0.35c-1.64-0.01-3.28-0.01-4.92,0
		c-0.24,0-0.39-0.1-0.55-0.26c-2.77-2.84-5.54-5.68-8.31-8.53c-0.1-0.1-0.18-0.23-0.27-0.34c-0.03,0.02-0.06,0.03-0.09,0.05
		c-0.01,0.14-0.02,0.28-0.02,0.41c0,2.74-0.01,5.49,0.01,8.23c0,0.37-0.1,0.44-0.45,0.43c-1.77-0.02-3.55-0.02-5.32,0
		c-0.31,0-0.37-0.09-0.37-0.38c0.01-5.37,0.01-10.74,0-16.11c0-0.33,0.11-0.39,0.41-0.39c1.6,0.01,3.2,0.01,4.8,0
		c0.24,0,0.42,0.07,0.61,0.23c2.79,2.41,5.59,4.81,8.39,7.21C75.13,12.55,75.21,12.62,75.37,12.75z"/>
	<path d="M97.7,13.5c0-2.68,0.01-5.36-0.01-8.03c0-0.32,0.06-0.43,0.41-0.43c4.37,0.01,8.73,0.01,13.1,0c0.3,0,0.42,0.06,0.41,0.39
		c-0.02,0.87-0.02,1.74,0,2.61c0.01,0.32-0.1,0.37-0.38,0.37c-2.08-0.01-4.16,0-6.25-0.01c-0.29,0-0.39,0.06-0.38,0.37
		c0.02,0.87,0.02,1.74,0,2.61c-0.01,0.35,0.07,0.48,0.46,0.47c1.95-0.02,3.89,0,5.84-0.02c0.33,0,0.44,0.07,0.43,0.41
		c-0.03,0.79-0.03,1.58,0,2.37c0.01,0.34-0.06,0.45-0.43,0.45c-1.96-0.02-3.92,0-5.88-0.02c-0.3,0-0.42,0.06-0.41,0.39
		c0.03,0.91,0.02,1.82,0,2.73c-0.01,0.31,0.07,0.41,0.4,0.4c2.15-0.01,4.3,0,6.45-0.02c0.36,0,0.45,0.1,0.44,0.45
		c-0.03,0.86-0.02,1.71,0,2.57c0,0.25-0.04,0.35-0.33,0.35c-4.51-0.01-9.03-0.01-13.54,0c-0.29,0-0.32-0.11-0.32-0.35
		C97.7,18.88,97.7,16.19,97.7,13.5z"/>
	<path d="M44.26,13.51c0,2.68,0,5.35,0.01,8.03c0,0.29-0.05,0.38-0.37,0.38c-1.84-0.02-3.68-0.01-5.52,0
		c-0.28,0-0.36-0.07-0.35-0.35c0.01-5.38,0.01-10.76,0-16.14c0-0.29,0.05-0.39,0.37-0.39c1.84,0.02,3.68,0.01,5.52,0
		c0.29,0,0.35,0.09,0.35,0.36C44.26,8.1,44.26,10.81,44.26,13.51z"/>
	<path d="M230.74,21.36c-1.01-1.91-2.01-3.83-3.04-5.74c-0.45-0.84-1.09-1.52-2.03-1.98c0.38-0.19,0.7-0.33,1.01-0.51
		c0.89-0.51,1.59-1.19,1.85-2.22c0.43-1.68-0.04-3.86-2.52-4.92c-1.4-0.6-2.89-0.82-4.39-0.89c-3.46-0.15-6.93-0.03-10.39-0.08
		c-0.33,0-0.36,0.12-0.36,0.39c0.01,5.23,0.01,10.47,0,15.7c0,0.33,0.11,0.39,0.41,0.38c2-0.01,4-0.01,6,0
		c0.3,0,0.38-0.06,0.38-0.37c-0.02-1.93-0.01-3.86-0.01-5.78c0-0.76,0-0.74,0.75-0.76c1.17-0.03,2.08,0.41,2.71,1.41
		c0.24,0.38,0.5,0.76,0.71,1.16c0.71,1.32,1.41,2.64,2.09,3.98c0.13,0.26,0.28,0.36,0.58,0.36c1.97-0.01,3.95-0.01,5.92-0.01
		c0.12,0,0.23,0,0.37,0C230.76,21.44,230.75,21.4,230.74,21.36z M222.11,10.46c-0.17,0.61-0.59,0.93-1.16,1.11
		c-0.83,0.26-1.69,0.22-2.55,0.22c-0.75,0-0.75,0-0.75-0.74c0-0.39,0-0.77,0-1.16c0-0.55,0-1.1,0-1.64c0-0.13-0.03-0.28,0.18-0.27
		c0.99,0.02,1.99-0.08,2.96,0.18C221.91,8.46,222.42,9.36,222.11,10.46z"/>
	<path d="M198.52,21.26c-2.73-5.32-5.45-10.63-8.17-15.95c-0.11-0.22-0.25-0.26-0.47-0.26c-2.03,0.01-4.06,0.01-6.08,0
		c-0.25,0-0.38,0.08-0.49,0.3c-2.77,5.29-5.55,10.58-8.33,15.87c-0.04,0.08-0.15,0.16-0.07,0.3c2.05,0,4.1,0,6.16,0
		c0.2,0,0.27-0.09,0.35-0.26c0.35-0.77,0.72-1.52,1.06-2.29c0.1-0.21,0.22-0.28,0.45-0.28c2.58,0.01,5.16,0.01,7.74,0
		c0.26,0,0.38,0.1,0.47,0.32c0.31,0.74,0.65,1.46,0.96,2.2c0.1,0.23,0.22,0.31,0.47,0.31c1.92-0.01,3.84-0.01,5.76-0.01
		c0.09,0,0.18-0.01,0.3-0.01C198.58,21.4,198.55,21.33,198.52,21.26z M189.32,15.54c-1.64,0-3.28,0-4.92,0
		c-0.2,0-0.38,0.04-0.23-0.29c0.88-1.9,1.75-3.81,2.67-5.82c0.92,2.07,1.8,4.05,2.67,6.01C189.46,15.57,189.38,15.54,189.32,15.54z"
		/>
</g>
</svg>
