<?xml version="1.0" encoding="utf-8"?>
<!-- Generator: Adobe Illustrator 26.3.1, SVG Export Plug-In . SVG Version: 6.00 Build 0)  -->
<svg version="1.1" id="Layer_2" xmlns="http://www.w3.org/2000/svg" xmlns:xlink="http://www.w3.org/1999/xlink" x="0px" y="0px"
	 viewBox="0 0 2485.37 1523.63" style="enable-background:new 0 0 2485.37 1523.63;" xml:space="preserve">
<style type="text/css">
	.st0{opacity:0.49;}
	.st1{opacity:0.45;}
	.st2{filter:url(#Adobe_OpacityMaskFilter);}
	.st3{filter:url(#Adobe_OpacityMaskFilter_00000134968693165440218000000004184740235121804207_);}
	.st4{mask:url(#SVGID_1_);fill:url(#SVGID_00000018211758499356859600000014203447740704356525_);}
	.st5{fill:url(#SVGID_00000085965587602487339020000001140649486988066694_);}
	.st6{fill:#ACC1E6;}
	.st7{fill:#FFFFFF;}
	.st8{fill:#222222;}
	.st9{fill:#7F59A6;}
	.st10{fill:#FFB957;}
	.st11{fill:#2A87DF;}
	.st12{fill:#90B3ED;}
	.st13{fill:#F2685D;}
	.st14{fill:#C57363;}
	.st15{fill:#4B494A;}
	.st16{fill:#729ADB;}
	.st17{fill:#BD6655;}
	.st18{fill:#7CA4E6;}
	.st19{fill:#E45449;}
	.st20{fill:#F59B3B;}
	.st21{fill:#F2B891;}
	.st22{fill:#FAC9A8;}
	.st23{fill:#3565BF;}
</style>
<g>
	<g class="st0">
		<g class="st1">
			<defs>
				<filter id="Adobe_OpacityMaskFilter" filterUnits="userSpaceOnUse" x="21.6" y="31.8" width="1427.95" height="1460.03">
					<feFlood  style="flood-color:white;flood-opacity:1" result="back"/>
					<feBlend  in="SourceGraphic" in2="back" mode="normal"/>
				</filter>
			</defs>
			<mask maskUnits="userSpaceOnUse" x="21.6" y="31.8" width="1427.95" height="1460.03" id="SVGID_1_">
				<g class="st2">
					<defs>
						
							<filter id="Adobe_OpacityMaskFilter_00000098195978162761026010000008922914268438737559_" filterUnits="userSpaceOnUse" x="196.15" y="43.51" width="1253.41" height="1388.83">
							<feFlood  style="flood-color:white;flood-opacity:1" result="back"/>
							<feBlend  in="SourceGraphic" in2="back" mode="normal"/>
						</filter>
					</defs>
					<mask maskUnits="userSpaceOnUse" x="196.15" y="43.51" width="1253.41" height="1388.83" id="SVGID_1_">
						<g style="filter:url(#Adobe_OpacityMaskFilter_00000098195978162761026010000008922914268438737559_);">
						</g>
					</mask>
					
						<linearGradient id="SVGID_00000109021845593243287690000007643937544901921977_" gradientUnits="userSpaceOnUse" x1="-978.2189" y1="1347.1667" x2="-978.2189" y2="106.621" gradientTransform="matrix(-1.1531 4.174476e-03 4.051771e-03 1.1192 -306.5205 -73.6133)">
						<stop  offset="0" style="stop-color:#000000"/>
						<stop  offset="0" style="stop-color:#FFFFFF"/>
						<stop  offset="1" style="stop-color:#FFFFFF"/>
					</linearGradient>
					<path style="mask:url(#SVGID_1_);fill:url(#SVGID_00000109021845593243287690000007643937544901921977_);" d="M196.15,89.54
						c27.21-45.32,120.9-65.74,210.76-21.12c54.47,27.05,86.67,115.91,143.45,137.42c64.59,24.48,171.54-52.27,239.74-64.5
						c68.19-12.23,141.59,13.71,197.22,53.87c58.22,42.03,62.33,116.98,121.42,157.85c38.61,26.7,105.33,5.75,152.57,9.75
						c47.24,4,96.94,8.74,135.79,35.12c38.85,26.38,52.44,113.17,52.44,113.17c0.7,85.88-13.41,171.15-27.49,255.95
						c-10.02,60.37-20.65,122.41-53.03,174.87c-53.74,87.05-157.93,133.28-221.18,214.08c-61.14,78.11-77.73,179.49-110.88,272.15
						c-0.14,0.39-0.28,0.77-0.42,1.16l-835.52,3.02L196.15,89.54z"/>
				</g>
			</mask>
			
				<linearGradient id="SVGID_00000038386939100200306610000012738108691761356211_" gradientUnits="userSpaceOnUse" x1="-901.0087" y1="1401.0492" x2="-901.0087" y2="96.1179" gradientTransform="matrix(-1.1531 4.174476e-03 4.051771e-03 1.1192 -306.5205 -73.6133)">
				<stop  offset="0" style="stop-color:#FDB2A5"/>
				<stop  offset="0" style="stop-color:#AFDDF9"/>
				<stop  offset="1" style="stop-color:#967EFA"/>
			</linearGradient>
			<path style="fill:url(#SVGID_00000038386939100200306610000012738108691761356211_);" d="M119.79,131.68
				C147,86.35,260.45-25.85,406.9,68.42c50.99,32.82,86.67,115.91,143.45,137.42c64.59,24.48,171.54-52.27,239.74-64.5
				c68.19-12.23,141.59,13.71,197.22,53.87c58.22,42.03,62.33,116.98,121.42,157.85c38.61,26.7,105.33,5.75,152.57,9.75
				c47.24,4,96.94,8.74,135.79,35.12c38.85,26.38,52.44,113.17,52.44,113.17c0.7,85.88-13.41,171.15-27.49,255.95
				c-10.02,60.37-20.65,122.41-53.03,174.87c-53.74,87.05-157.93,133.28-221.18,214.08c-61.14,78.11-22.22,227.47-110.88,272.15
				s-349.39-144.45-481.89,2.76c-106.98,118.86-229.4,33.58-348.51-3.43c-49.11-15.26-48.88-88.52-53.8-139.71
				c-7.79-81.15-105.47-96.06-124.87-174.08c-39.66-159.5,121.87-299.69,121.5-489.08C149.14,507.03-2.5,283.61,119.79,131.68z"/>
		</g>
	</g>
	<g>
		<g>
			<path class="st6" d="M682.55,618.82c11.26-5.74,23.01,7.29,29.24,15.02c8.96,11.12,15.01,24.49,20.73,37.27
				c9.5,21.23,17.96,42.99,25.73,64.91l-0.01,0.01c-16.78-16.1-33.14-32.76-48.59-50.15c-9.3-10.47-19-21.49-25.45-34.23
				c-4.49-8.86-11.53-24.92-1.67-32.83L682.55,618.82z"/>
			<path class="st6" d="M658.73,718.86c6.48-10.85,23.35-6.08,32.75-2.85c13.5,4.64,25.75,12.74,37.39,20.52
				c19.35,12.92,38.09,26.83,56.34,41.25l-0.01,0.01c-22.78-4.7-45.49-10.09-67.83-16.59c-13.44-3.91-27.52-8.08-39.76-15.43
				c-8.52-5.11-23.03-14.96-18.89-26.9L658.73,718.86z"/>
			<path class="st6" d="M690,790.5c5.24-11.5,22.54-8.62,32.23-6.45c13.93,3.12,27,9.82,39.43,16.26
				c20.66,10.7,40.82,22.46,60.55,34.77l0,0.01c-23.16-2.15-46.33-5-69.25-8.99c-13.79-2.4-28.25-4.98-41.23-10.94
				c-9.03-4.14-24.54-12.33-21.75-24.65L690,790.5z"/>
			<path class="st6" d="M780.19,930.14c5.24-11.5,22.54-8.62,32.23-6.45c13.93,3.12,27,9.82,39.43,16.26
				c20.66,10.7,40.82,22.46,60.55,34.77l0,0.01c-23.16-2.15-46.33-5-69.25-8.99c-13.79-2.4-28.25-4.98-41.23-10.94
				c-9.03-4.14-24.54-12.33-21.75-24.65L780.19,930.14z"/>
			<path class="st6" d="M838.83,999.62c4.54-9.97,19.54-7.48,27.94-5.59c12.08,2.71,23.41,8.51,34.19,14.09
				c17.91,9.28,35.39,19.47,52.5,30.14l0,0.01c-20.08-1.86-40.16-4.34-60.03-7.79c-11.96-2.08-24.49-4.32-35.74-9.48
				C849.85,1017.42,836.41,1010.32,838.83,999.62L838.83,999.62z"/>
			<path class="st6" d="M711.71,856.68c5.49-11.42,26.12-7.42,37.72-4.6c16.67,4.05,32.53,11.68,47.63,19.02
				c25.09,12.19,49.66,25.44,73.75,39.22l0,0.01c-27.52-3.62-55.1-7.96-82.44-13.44c-16.46-3.3-33.71-6.83-49.43-13.7
				c-10.93-4.78-29.78-14.09-27.23-26.5L711.71,856.68z"/>
			<path class="st6" d="M783.54,638.26c12.59,1.14,15.6,18.41,16.76,28.28c1.66,14.18-0.33,28.73-2.29,42.59
				c-3.26,23.03-7.69,45.95-12.77,68.65l-0.01,0c-5.64-22.57-10.61-45.37-14.43-68.32c-2.3-13.81-4.64-28.3-3.32-42.52
				c0.92-9.89,3.51-27.24,16.07-28.68L783.54,638.26z"/>
			<path class="st6" d="M835.98,696.23c12.38,2.52,13.47,20.03,13.53,29.96c0.09,14.28-3.5,28.51-6.99,42.08
				c-5.79,22.53-12.72,44.82-20.28,66.82l-0.01,0c-3.11-23.05-5.53-46.27-6.79-69.5c-0.76-13.98-1.49-28.64,1.4-42.63
				c2.01-9.73,6.5-26.68,19.14-26.73L835.98,696.23z"/>
			<path class="st6" d="M926.17,835.87c12.38,2.52,13.47,20.03,13.53,29.96c0.09,14.28-3.5,28.51-6.99,42.08
				c-5.79,22.53-12.72,44.82-20.28,66.82l-0.01,0c-3.11-23.05-5.53-46.27-6.79-69.5c-0.76-13.98-1.49-28.64,1.4-42.63
				c2.01-9.73,6.5-26.68,19.14-26.73L926.17,835.87z"/>
			<path class="st6" d="M965.39,917.89c10.73,2.19,11.67,17.36,11.73,25.97c0.07,12.38-3.04,24.72-6.06,36.48
				c-5.02,19.53-11.03,38.86-17.59,57.93l-0.01,0c-2.69-19.99-4.79-40.11-5.89-60.25c-0.66-12.12-1.29-24.83,1.21-36.96
				c1.74-8.44,5.64-23.13,16.59-23.17L965.39,917.89z"/>
			<path class="st6" d="M887.37,743.23c12.36,2.78,13.09,23.79,12.96,35.72c-0.2,17.15-4.08,34.33-7.84,50.69
				c-6.25,27.18-13.64,54.1-21.66,80.68l-0.01,0c-2.65-27.63-4.62-55.48-5.42-83.36c-0.48-16.78-0.92-34.38,2.25-51.24
				c2.2-11.73,7.05-32.18,19.71-32.49L887.37,743.23z"/>
			<g>
				<path class="st6" d="M997.63,1106.66c-1.26,0.81-2.94,0.45-3.75-0.81L751.71,730.92c-0.81-1.26-0.45-2.94,0.81-3.75
					c1.26-0.81,2.94-0.45,3.75,0.81l242.16,374.94C999.25,1104.17,998.89,1105.85,997.63,1106.66z"/>
			</g>
		</g>
		<g>
			<path class="st6" d="M2110.71,979.03c6.9,9.31-3.09,21.91-9.13,28.72c-8.69,9.79-19.86,17.3-30.54,24.41
				c-17.75,11.82-36.13,22.78-54.77,33.14l-0.01-0.01c12.01-17.63,24.58-34.94,37.95-51.56c8.05-10,16.54-20.45,27.07-28.22
				C2088.61,980.11,2102.06,971.31,2110.71,979.03L2110.71,979.03z"/>
			<path class="st6" d="M2016.64,972.72c10.79,4.21,9.05,20.19,7.56,29.17c-2.14,12.91-7.6,25.22-12.86,36.93
				c-8.74,19.46-18.47,38.52-28.72,57.21l-0.01,0c0.78-21.31,2.2-42.66,4.68-63.85c1.49-12.75,3.11-26.11,7.9-38.3
				c3.33-8.48,10.03-23.09,21.45-21.17L2016.64,972.72z"/>
			<path class="st6" d="M1956.63,1011.89c11.19,2.99,11.23,19.06,10.74,28.16c-0.7,13.07-4.77,25.9-8.7,38.12
				c-6.53,20.3-14.09,40.32-22.22,60.04l-0.01,0c-1.58-21.27-2.53-42.65-2.41-63.97c0.07-12.84,0.21-26.3,3.61-38.94
				c2.37-8.79,7.41-24.06,18.98-23.41L1956.63,1011.89z"/>
			<path class="st6" d="M1844.11,1114.68c11.19,2.99,11.23,19.06,10.74,28.16c-0.7,13.07-4.77,25.9-8.7,38.12
				c-6.53,20.3-14.09,40.32-22.22,60.04l-0.01,0c-1.58-21.27-2.53-42.65-2.41-63.97c0.07-12.84,0.21-26.3,3.61-38.94
				c2.37-8.79,7.41-24.06,18.98-23.41L1844.11,1114.68z"/>
			<path class="st6" d="M1790.21,1178.26c9.7,2.59,9.73,16.53,9.31,24.41c-0.61,11.33-4.13,22.46-7.54,33.05
				c-5.66,17.6-12.22,34.96-19.27,52.05l-0.01,0c-1.37-18.44-2.19-36.97-2.09-55.46c0.06-11.13,0.18-22.8,3.13-33.76
				C1775.8,1190.93,1780.17,1177.7,1790.21,1178.26L1790.21,1178.26z"/>
			<path class="st6" d="M1900.1,1041.58c11.16,3.22,10.68,22.49,9.9,33.4c-1.12,15.69-5.61,31.19-9.95,45.96
				c-7.21,24.54-15.44,48.76-24.24,72.65l-0.01,0c-0.91-25.43-1.19-51.02-0.39-76.58c0.48-15.38,1.04-31.52,4.87-46.77
				c2.66-10.61,8.21-29.07,19.82-28.66L1900.1,1041.58z"/>
			<path class="st6" d="M2108.5,1073.28c0.89,11.55-14.27,16.9-23.02,19.45c-12.57,3.66-26.02,4.07-38.85,4.41
				c-21.32,0.56-42.71,0.04-64.01-1.1l0-0.01c19.55-8.53,39.41-16.5,59.57-23.44c12.14-4.18,24.88-8.51,37.94-9.48
				c9.08-0.68,25.16-0.97,28.37,10.16L2108.5,1073.28z"/>
			<path class="st6" d="M2064.07,1129.52c-0.4,11.58-16.06,15.22-25.03,16.79c-12.9,2.25-26.31,1.17-39.1,0.09
				c-21.25-1.81-42.46-4.68-63.49-8.17l0-0.01c20.37-6.32,40.99-12.04,61.8-16.71c12.52-2.81,25.67-5.7,38.75-5.22
				c9.1,0.33,25.11,1.82,27.08,13.24L2064.07,1129.52z"/>
			<path class="st6" d="M1951.55,1232.31c-0.4,11.58-16.06,15.22-25.03,16.79c-12.9,2.25-26.31,1.17-39.1,0.09
				c-21.25-1.81-42.46-4.68-63.49-8.17l0-0.01c20.37-6.32,40.99-12.04,61.8-16.71c12.52-2.81,25.67-5.7,38.75-5.22
				c9.1,0.33,25.11,1.82,27.08,13.24L1951.55,1232.31z"/>
			<path class="st6" d="M1883.36,1280.24c-0.34,10.04-13.92,13.2-21.7,14.55c-11.18,1.95-22.81,1.02-33.9,0.07
				c-18.42-1.57-36.81-4.06-55.05-7.08l0-0.01c17.66-5.48,35.54-10.44,53.58-14.49c10.86-2.44,22.26-4.94,33.6-4.53
				C1867.78,1269.05,1881.66,1270.34,1883.36,1280.24L1883.36,1280.24z"/>
			<path class="st6" d="M2029.4,1183.13c-0.64,11.59-19.52,15.46-30.33,17.15c-15.54,2.43-31.66,1.54-47.02,0.62
				c-25.53-1.51-50.99-4.1-76.23-7.3l0-0.01c24.58-6.6,49.45-12.62,74.54-17.58c15.1-2.99,30.95-6.06,46.67-5.76
				c10.94,0.21,30.17,1.47,32.37,12.87L2029.4,1183.13z"/>
			<g>
				<path class="st6" d="M1717.6,1338.12c-0.93-1.01-0.86-2.59,0.16-3.52l302.13-275.99c1.01-0.93,2.59-0.86,3.52,0.16
					c0.93,1.01,0.86,2.59-0.16,3.52l-302.13,275.99C1720.1,1339.21,1718.53,1339.13,1717.6,1338.12z"/>
			</g>
		</g>
		<g>
			<path class="st6" d="M1751.06,642.99c0,0,0.01,0.01,0,0.02c-4.99,9.12-12.87,20.23-24.09,27.01c-11.9,7.19-26.4,8.2-39.27,12.91
				c-7.68,2.81-15.61,8.08-20.35,14.83c-6.56,9.33-1.16,22.68,10.8,22.97c10.52,0.24,19.39-8.56,26.84-14.86
				c12.13-10.21,25.31-16.9,40.72-18.42c-7.16,36.12-21.68,70.21-47.37,99.19c-26.05,29.4-63.8,53.87-104.73,46.83
				c-11.33-1.96-22.03-6.55-31.61-12.85c-9.59-6.29-18.06-14.29-24.35-23.9c-22.72-34.76-15.26-79.13,1.36-114.71
				c0.36-0.76,0.72-1.52,1.1-2.28c0.01-0.01,0.01-0.01,0.01-0.01s0,0-0.01,0.01c-0.68,12.75,0.04,26,4.68,37.9
				c3.48,8.91,10.66,21.78,22.22,18.05c15.04-4.86,16.8-29.68,17.44-42.64c0.8-16.28-1.83-32.53-4.96-48.45
				c-1.06-5.4-2.16-10.77-3.24-16.15c18.11-18.6,39.53-33.74,62.73-46.22c3.46,6.29,6.21,14.37,4.7,22.81
				c-2.03,11.23-10.25,23.52-6.82,35.25c1.65,5.65,7.58,8.55,13.02,6.38c7.74-3.08,12.86-11.88,15.52-19.3
				c1.81-5.07,2.74-10.44,2.81-15.82c0.31-22.29-4.1-28.58,9.13-47.17c0,0,0,0,0.01-0.01l-0.01,0.01c0,0,0,0,0.01-0.01
				c22.05-8.82,44.81-15.88,67.23-21.73C1749.64,575.19,1752.73,609.4,1751.06,642.99c0,0,0.01,0.01,0,0.02L1751.06,642.99z"/>
			<g>
				<path class="st7" d="M1523.16,879.78c-0.89-0.58-1.14-1.78-0.55-2.67l223.93-340.97c0.58-0.89,1.78-1.14,2.67-0.55
					c0.89,0.58,1.14,1.78,0.55,2.67l-223.93,340.97C1525.24,880.12,1524.05,880.37,1523.16,879.78z"/>
			</g>
			<g>
				<path class="st7" d="M1688.91,627.4c-0.54-0.36-0.89-0.98-0.87-1.68c0.04-1.06,0.93-1.89,1.99-1.86
					c0.35,0.01,34.85,0.85,64.55-27.96c0.76-0.74,1.98-0.72,2.72,0.04c0.74,0.76,0.72,1.98-0.04,2.72
					c-30.93,30-65.9,29.1-67.37,29.05C1689.53,627.7,1689.19,627.59,1688.91,627.4z"/>
			</g>
			<g>
				<path class="st7" d="M1621.58,729.91c-0.33-0.22-0.6-0.54-0.75-0.93c-25.83-68.97-14.67-135.06-14.56-135.72
					c0.18-1.05,1.18-1.75,2.23-1.57c1.05,0.18,1.75,1.18,1.56,2.23c-0.11,0.65-11.08,65.75,14.37,133.7c0.37,1-0.13,2.11-1.13,2.48
					C1622.72,730.33,1622.08,730.23,1621.58,729.91z"/>
			</g>
			<g>
				<path class="st7" d="M1575.24,800.48c-0.68-0.44-1.02-1.29-0.8-2.11c0.28-1.03,1.34-1.63,2.36-1.36
					c58.25,15.76,138.13-25.57,138.93-25.98c0.94-0.49,2.1-0.13,2.6,0.81c0.49,0.94,0.13,2.11-0.81,2.6
					c-3.32,1.74-82,42.45-141.73,26.29C1575.59,800.68,1575.4,800.59,1575.24,800.48z"/>
			</g>
		</g>
		<g>
			<g>
				<path class="st6" d="M427.99,930.98c-6.72,3.81-12.47,7.94-16.38,11.69c-3.93,3.84-6.02,7.24-5.41,9.45
					c0.3,1.1,1.28,1.76,2.79,2.05c1.5,0.32,3.54,0.24,5.97-0.23c2.44-0.47,5.27-1.33,8.38-2.58c1.55-0.62,3.17-1.35,4.84-2.15
					c1.66-0.77,3.37-1.63,5.11-2.59c6.97-3.82,13.03-8.34,17.13-12.42c4.09-4.06,6.19-7.63,5.32-9.75
					c-0.87-2.15-4.48-2.32-9.52-1.12C441.18,924.57,434.73,927.11,427.99,930.98z"/>
			</g>
			<g>
				<path class="st6" d="M427.85,911.59c3.23,2.29,6.33,4.39,9.21,6.2c2.86,1.9,5.5,3.55,7.86,4.8c4.7,2.49,8.31,3.39,9.93,1.59
					c1.59-1.75,0.83-5.95-2.23-11.16c-1.52-2.6-3.63-5.44-6.27-8.29c-1.32-1.42-2.76-2.87-4.34-4.25c-1.59-1.35-3.29-2.67-5.11-3.93
					c-3.64-2.52-7.34-4.56-10.85-6.12c-3.53-1.48-6.89-2.41-9.79-2.9c-5.82-0.98-9.81-0.16-10.61,2.12
					c-0.82,2.32,1.58,5.62,5.72,9.36C415.53,902.77,421.42,906.94,427.85,911.59z"/>
			</g>
			<g>
				<path class="st6" d="M484.35,917.43c3.91,6.84,7.47,12.77,10.4,17.29c2.96,4.42,5.54,7.02,7.69,6.21
					c2.08-0.79,3.33-4.98,2.93-11.22c-0.4-6.17-2.56-14.52-7.14-22.35c-2.3-3.91-4.92-7.34-7.61-10.2
					c-2.67-2.88-5.42-5.14-7.98-6.64c-5.11-3.09-9.16-3.67-10.64-1.8c-1.52,1.92-0.32,5.84,2.17,10.81
					C476.69,904.5,480.43,910.57,484.35,917.43z"/>
			</g>
			<g>
				<path class="st6" d="M525.35,934.96c0.72,4.73,1.99,8.96,3.41,12.73c1.49,3.71,3.2,6.8,4.98,9.09c3.56,4.6,7.03,6.18,8.88,4.85
					c1.94-1.4,2.11-5.45,1.56-10.81c-0.3-2.67-0.7-5.74-1.22-9.08c-0.48-3.35-1.01-7-1.56-10.84c-0.49-3.89-0.96-7.6-1.38-11
					c-0.4-3.42-0.88-6.52-1.32-9.23c-0.94-5.39-2.17-9.22-4.48-9.65c-2.21-0.43-5.14,2.87-7.22,9.13c-1.05,3.11-1.8,6.93-2.15,11.17
					C524.54,925.57,524.66,930.24,525.35,934.96z"/>
			</g>
			<g>
				<path class="st6" d="M547.09,980.54c-6.62,1.47-12.54,2.91-17.05,4.48c-4.47,1.55-7.65,3.51-8.13,5.86
					c-0.46,2.28,1.89,4.72,6.5,6.23c4.58,1.52,11.57,1.73,19.32,0.17c7.78-1.65,14.85-5.08,19.48-8.56c4.64-3.46,6.91-6.91,6.2-9
					c-0.71-2.17-4.19-2.54-8.91-2.16C559.72,978,553.72,979.02,547.09,980.54z"/>
			</g>
			<g>
				<path class="st6" d="M619.34,1018.37c-7.9,0.58-15.12,3.45-19.83,6.55c-4.76,3.13-7.16,6.41-6.67,8.47
					c0.49,2.14,3.68,2.71,8.18,2.72c4.49,0.03,10.39-0.47,16.98-1.04c6.63-0.6,12.55-0.89,17.32-1.66c4.72-0.74,8.21-1.92,9.12-4.18
					c0.89-2.19-1.14-5.14-5.63-7.55C634.41,1019.19,627.25,1017.78,619.34,1018.37z"/>
			</g>
			<g>
				<path class="st6" d="M639.13,1041.94c-8.8,1.38-16.52,4.6-21.71,7.99c-5.21,3.4-7.94,6.81-7.47,8.84
					c0.48,2.09,3.96,2.5,9.11,2.12c5.2-0.44,11.96-1.4,19.54-2.5c7.58-1.08,14.63-2.12,19.94-3.2c5.33-1.14,9.1-2.61,9.78-4.91
					c0.65-2.22-1.98-4.98-7.3-6.85C655.7,1041.59,647.85,1040.65,639.13,1041.94z"/>
			</g>
			<g>
				<path class="st6" d="M689.86,1045.51c0.36,3.88,0.7,7.58,1.02,10.96c0.24,3.39,0.5,6.47,0.77,9.12c0.56,5.29,1.3,9.04,3.54,9.43
					c2.12,0.39,5.36-2.77,8.02-8.8c1.34-3,2.43-6.71,3.11-10.89c0.64-4.18,0.74-8.74,0.21-13.49c-0.57-4.74-1.76-9.14-3.26-12.96
					c-1.62-3.73-3.53-6.88-5.51-9.26c-3.96-4.78-7.76-6.56-9.73-5.15c-2.02,1.41-1.93,5.47-1.2,10.95c0.39,2.73,0.88,5.86,1.45,9.22
					C688.78,1038.01,689.38,1041.61,689.86,1045.51z"/>
			</g>
			<g>
				<path class="st6" d="M734.23,1154.82c-3.79-0.74-7.49-1.43-10.79-2.13c-3.32-0.73-6.33-1.39-8.9-1.95
					c-5.17-1.09-9.09-1.42-10.77,0.42c-1.56,1.71-0.56,5.5,3.54,9.51c2.03,2.01,4.92,3.94,8.48,5.64c3.51,1.71,7.74,3.14,12.52,4.01
					c4.77,0.84,9.69,0.97,14.05,0.77c4.42-0.29,8.47-1.01,11.81-2.07c6.73-2.08,10.46-5.05,10.2-7.15c-0.27-2.2-4.07-3.28-9.64-4.09
					c-2.74-0.36-5.94-0.78-9.48-1.25C741.78,1156.03,738.06,1155.49,734.23,1154.82z"/>
			</g>
			<g>
				<path class="st6" d="M773.84,1144.15c-0.75,7.59-1.94,14.51-2.48,19.73c-0.53,5.22-0.41,8.91,1.63,9.78
					c1.98,0.82,5.76-1.55,9.6-6.8c1.93-2.62,3.75-5.95,5.23-9.78c1.44-3.85,2.56-8.24,3.08-12.92c0.47-4.67,0.35-9.2-0.38-13.12
					c-0.74-3.94-1.86-7.39-3.23-10.11c-2.68-5.51-6.09-7.95-8.29-7.05c-2.32,0.94-3.11,4.82-3.63,10.24
					C774.84,1129.58,774.53,1136.57,773.84,1144.15z"/>
			</g>
			<g>
				<path class="st6" d="M773.37,1213.64c-7.04-0.96-13.42-1.8-18.41-2.11c-4.99-0.28-8.73,0.09-10.19,2
					c-1.4,1.84-0.12,4.96,3.96,8.04c2.03,1.54,4.77,3.01,7.99,4.34c3.26,1.28,7.12,2.33,11.39,2.97c4.28,0.6,8.57,0.71,12.48,0.48
					c3.89-0.26,7.43-0.86,10.37-1.74c5.91-1.73,9.29-4.29,9.19-6.42c-0.06-2.22-3.53-3.56-8.42-4.64
					C786.79,1215.5,780.34,1214.62,773.37,1213.64z"/>
			</g>
			<g>
				<path class="st6" d="M815.79,1210.99c-2.59,6.69-5.15,12.62-6.85,17.29c-1.69,4.65-2.33,8.08-0.65,9.47
					c1.65,1.31,5.69,0.13,10.5-3.7c2.39-1.9,4.93-4.51,7.25-7.65c2.28-3.15,4.39-6.88,6-11.02c1.58-4.15,2.5-8.29,2.89-12.09
					c0.36-3.81,0.06-7.18-0.56-9.99c-1.26-5.63-3.77-8.69-6.11-8.37c-2.43,0.31-4.31,3.71-6.18,8.47
					C820.21,1198.18,818.22,1204.36,815.79,1210.99z"/>
			</g>
			<g>
				<path class="st6" d="M832.61,1246.85c-1.46,3.38-2.85,6.59-4.12,9.54c-1.32,2.91-2.53,5.6-3.58,7.92
					c-1.96,4.65-3.07,8.15-1.45,9.63c1.55,1.41,5.8,0.42,10.99-3.35c2.59-1.87,5.3-4.47,7.89-7.69c2.51-3.23,4.78-7.06,6.54-11.36
					c1.71-4.31,2.7-8.63,3.12-12.6c0.36-3.97,0.02-7.5-0.66-10.42c-1.38-5.86-4.06-8.97-6.38-8.58c-2.44,0.39-4.18,3.93-5.96,8.84
					c-0.87,2.47-1.84,5.29-2.85,8.35C835.05,1240.16,833.93,1243.42,832.61,1246.85z"/>
			</g>
			<g>
				<path class="st6" d="M828.72,1287.78c1.61-0.58,2.49-2.17,1.96-3.56c-15.31-42.19-35.93-82.37-60.56-119.85
					c-12.34-18.73-25.69-36.8-40.04-54.04c-14.37-17.22-29.67-33.67-45.8-49.25c-64.43-62.41-142.63-110.71-227.66-139.43
					c-1.4-0.5-2.99,0.49-3.52,2.1c-0.54,1.63,0.17,3.27,1.55,3.76c84.12,28.42,161.54,76.23,225.34,138.02
					c15.97,15.43,31.12,31.71,45.34,48.76c14.21,17.06,27.42,34.95,39.63,53.49c24.37,37.09,44.78,76.85,59.91,118.57
					C825.39,1287.71,827.11,1288.36,828.72,1287.78z"/>
			</g>
		</g>
	</g>
	<g>
		<rect x="1321.63" y="1087.56" class="st8" width="275" height="275"/>
		<rect x="1046.63" y="1087.56" class="st9" width="275" height="275"/>
		<rect x="771.63" y="1087.56" class="st10" width="275" height="275"/>
		<rect x="1596.63" y="1087.56" class="st11" width="275" height="275"/>
		<rect x="1321.63" y="812.56" class="st9" width="275" height="275"/>
		<rect x="1046.63" y="812.56" class="st12" width="275" height="275"/>
		<rect x="771.63" y="812.56" class="st11" width="275" height="275"/>
		<rect x="1596.63" y="812.56" class="st10" width="275" height="275"/>
		<path class="st10" d="M1101.12,1183.84c-11.2-0.45-21.43,3.58-29.1,10.43c-5.9,5.27-13.32,8.51-21.23,8.51h-4.16v44.55h3.6
			c8.2,0,15.9,3.34,22.06,8.75c7.25,6.36,16.74,10.23,27.15,10.23c23.32,0,42.12-19.35,41.22-42.87
			C1139.84,1202.24,1122.32,1184.69,1101.12,1183.84z"/>
		<path class="st10" d="M867.92,1033.07c-0.45,11.2,3.58,21.43,10.43,29.1c5.27,5.9,8.51,13.32,8.51,21.23v4.16h44.55v-3.6
			c0-8.2,3.34-15.9,8.75-22.06c6.36-7.25,10.23-16.74,10.23-27.15c0-23.32-19.35-42.12-42.87-41.22
			C886.32,994.35,868.77,1011.87,867.92,1033.07z"/>
		<path class="st9" d="M1376.12,1183.84c-11.2-0.45-21.43,3.58-29.1,10.43c-5.9,5.27-13.32,8.51-21.23,8.51h-4.16v44.55h3.6
			c8.2,0,15.9,3.34,22.06,8.75c7.25,6.36,16.74,10.23,27.15,10.23c23.32,0,42.12-19.35,41.22-42.87
			C1414.84,1202.24,1397.32,1184.69,1376.12,1183.84z"/>
		<path class="st12" d="M1142.92,1142.05c-0.45-11.2,3.58-21.43,10.43-29.1c5.27-5.9,8.51-13.32,8.51-21.23v-4.16h44.55v3.6
			c0,8.2,3.34,15.9,8.75,22.06c6.36,7.25,10.23,16.74,10.23,27.15c0,23.32-19.35,42.12-42.87,41.22
			C1161.32,1180.77,1143.77,1163.25,1142.92,1142.05z"/>
		<path class="st11" d="M1542.15,1183.84c11.2-0.45,21.43,3.58,29.1,10.43c5.9,5.27,13.32,8.51,21.23,8.51h4.16v44.55h-3.6
			c-8.2,0-15.9,3.34-22.06,8.75c-7.25,6.36-16.74,10.23-27.15,10.23c-23.32,0-42.12-19.35-41.22-42.87
			C1503.43,1202.24,1520.95,1184.69,1542.15,1183.84z"/>
		<path class="st8" d="M1417.92,1033.07c-0.45,11.2,3.58,21.43,10.43,29.1c5.27,5.9,8.51,13.32,8.51,21.23v4.16h44.55v-3.6
			c0-8.2,3.34-15.9,8.75-22.06c6.36-7.25,10.23-16.74,10.23-27.15c0-23.32-19.35-42.12-42.87-41.22
			C1436.32,994.35,1418.77,1011.87,1417.92,1033.07z"/>
		<path class="st11" d="M1692.92,1033.07c-0.45,11.2,3.58,21.43,10.43,29.1c5.27,5.9,8.51,13.32,8.51,21.23v4.16h44.55v-3.6
			c0-8.2,3.34-15.9,8.75-22.06c6.36-7.25,10.23-16.74,10.23-27.15c0-23.32-19.35-42.12-42.87-41.22
			C1711.32,994.35,1693.77,1011.87,1692.92,1033.07z"/>
		<path class="st11" d="M1101.12,908.84c-11.2-0.45-21.43,3.58-29.1,10.43c-5.9,5.27-13.32,8.51-21.23,8.51h-4.16v44.55h3.6
			c8.2,0,15.9,3.34,22.06,8.75c7.25,6.36,16.74,10.23,27.15,10.23c23.32,0,42.12-19.35,41.22-42.87
			C1139.84,927.24,1122.32,909.69,1101.12,908.84z"/>
		<path class="st11" d="M867.92,758.07c-0.45,11.2,3.58,21.43,10.43,29.1c5.27,5.9,8.51,13.32,8.51,21.23v4.16h44.55v-3.6
			c0-8.2,3.34-15.9,8.75-22.06c6.36-7.25,10.23-16.74,10.23-27.15c0-23.32-19.35-42.12-42.87-41.22
			C886.32,719.35,868.77,736.87,867.92,758.07z"/>
		<path class="st9" d="M1267.15,908.84c11.2-0.45,21.43,3.58,29.1,10.43c5.9,5.27,13.32,8.51,21.23,8.51h4.16v44.55h-3.6
			c-8.2,0-15.9,3.34-22.06,8.75c-7.25,6.36-16.74,10.23-27.15,10.23c-23.32,0-42.12-19.35-41.22-42.87
			C1228.43,927.24,1245.95,909.69,1267.15,908.84z"/>
		<path class="st12" d="M1142.92,758.07c-0.45,11.2,3.58,21.43,10.43,29.1c5.27,5.9,8.51,13.32,8.51,21.23v4.16h44.55v-3.6
			c0-8.2,3.34-15.9,8.75-22.06c6.36-7.25,10.23-16.74,10.23-27.15c0-23.32-19.35-42.12-42.87-41.22
			C1161.32,719.35,1143.77,736.87,1142.92,758.07z"/>
		<path class="st9" d="M1651.12,908.84c-11.2-0.45-21.43,3.58-29.1,10.43c-5.9,5.27-13.32,8.51-21.23,8.51h-4.16v44.55h3.6
			c8.2,0,15.9,3.34,22.06,8.75c7.25,6.36,16.74,10.23,27.15,10.23c23.32,0,42.12-19.35,41.22-42.87
			C1689.84,927.24,1672.32,909.69,1651.12,908.84z"/>
		<path class="st13" d="M1417.92,867.05c-0.45-11.2,3.58-21.43,10.43-29.1c5.27-5.9,8.51-13.32,8.51-21.23v-4.16h44.55v3.6
			c0,8.2,3.34,15.9,8.75,22.06c6.36,7.25,10.23,16.74,10.23,27.15c0,23.32-19.35,42.12-42.87,41.22
			C1436.32,905.77,1418.77,888.25,1417.92,867.05z"/>
		<path class="st10" d="M1692.92,758.07c-0.45,11.2,3.58,21.43,10.43,29.1c5.27,5.9,8.51,13.32,8.51,21.23v4.16h44.55v-3.6
			c0-8.2,3.34-15.9,8.75-22.06c6.36-7.25,10.23-16.74,10.23-27.15c0-23.32-19.35-42.12-42.87-41.22
			C1711.32,719.35,1693.77,736.87,1692.92,758.07z"/>
		<path class="st13" d="M1542.15,633.84c11.2-0.45,21.43,3.58,29.1,10.43c5.9,5.27,13.32,8.51,21.23,8.51h4.16V537.56h-275v115.23
			h4.16c7.91,0,15.33-3.24,21.23-8.51c7.67-6.85,17.91-10.88,29.1-10.43c21.2,0.85,38.72,18.4,39.53,39.6
			c0.9,23.52-17.9,42.87-41.22,42.87c-10.41,0-19.9-3.86-27.15-10.23c-6.16-5.41-13.86-8.75-22.06-8.75h-3.6v115.22h275V697.33h-3.6
			c-8.2,0-15.9,3.34-22.06,8.75c-7.25,6.36-16.74,10.23-27.15,10.23c-23.32,0-42.12-19.35-41.22-42.87
			C1503.43,652.24,1520.95,634.69,1542.15,633.84z"/>
	</g>
	<g>
		<g>
			<g>
				<g>
					<polygon class="st14" points="1939.43,1359 1937.92,1400.82 1903,1400.82 1909.68,1359 					"/>
					<path class="st8" d="M1905.51,1385.07l-8.34,27.6h87.73c0,0-1.94-8.41-13.8-12.72c-11.86-4.31-22.75-6.05-32.71-12.51
						l-11.04,7.98L1905.51,1385.07z"/>
				</g>
				<polygon class="st8" points="1925.63,1060.25 1954.95,1212.06 1942.01,1370.64 1902.35,1370.64 1875.19,1208.12 
					1845.45,1062.41 				"/>
			</g>
			<g>
				<g>
					<polygon class="st14" points="1805.14,1359 1798.46,1400.82 1763.54,1400.82 1775.39,1359 					"/>
					<path class="st8" d="M1768,1385.07l-10.28,27.6h87.73c0,0-1.94-8.41-13.8-12.72c-11.86-4.31-21.06-6.05-31.03-12.51
						l-12.73,7.98L1768,1385.07z"/>
				</g>
				<path class="st15" d="M1919.16,1056.37l-32.33,161.23l-75.01,153.04h-50.01l52.16-148.3c0,0-3.23-92.47-2.26-145.39
					L1919.16,1056.37z"/>
			</g>
		</g>
		<g>
			<g>
				<path class="st14" d="M1854.26,922.99c-14.74,5.3-29.16,14.1-23.35,31.44c7.67,22.87,36.38,36.44,159.09-34
					c0,0,52.47-99.37,59.08-118.86c6.61-19.49,15.66-41.48,12.2-44.1c-3.46-2.62-14.51,16.03-16.95,18.54
					c-2.44,2.5-3.18-5.86-2.84-9.41c0.34-3.56-2.37-6.69-10.46,26l-69.04,100.02c-20.72,5.77-41.43,11.54-62.15,17.31
					c-9.7,2.7-19.4,5.4-29.1,8.1C1866.03,919.33,1860.12,920.89,1854.26,922.99z"/>
				<path class="st16" d="M1854.26,922.99c5.86-2.11,11.77-3.66,16.48-4.97c9.7-2.7,19.4-5.4,29.1-8.1
					c9.73-2.71,19.47-5.42,29.2-8.13l12.81,44.42c-82.49,40.42-104.4,27.73-110.94,8.22
					C1825.1,937.09,1839.52,928.29,1854.26,922.99z"/>
			</g>
			<g>
				<polygon class="st17" points="1872.61,803.32 1883.38,878.11 1843.51,862.81 1844.37,794.26 				"/>
				<path class="st18" d="M1889.25,882.96c0,0,39.5,114.46,45.32,191.73l-122.86,2.26c0,0-56.04-186.13,31.79-214.15L1889.25,882.96
					z"/>
				<polygon class="st12" points="1885.97,866.69 1895.24,893.85 1837.64,866.04 1839.84,850.95 				"/>
			</g>
			<g>
				<path class="st14" d="M1837.83,896.84c-13.51,7.92-26.07,19.22-17.17,35.19c11.74,21.07,42.46,29.13,150.13-62.68
					c0,0,33.3-107.33,36.21-127.7c2.91-20.37,7.76-43.65,3.88-45.59c-3.88-1.94-11.32,18.43-13.26,21.34
					c-1.94,2.91-4.2-5.17-4.53-8.73c-0.32-3.56-3.56-6.14-5.5,27.48l-49.47,111.01c-19.3,9.48-38.6,18.96-57.9,28.44
					c-9.04,4.44-18.07,8.88-27.11,13.32C1848.73,891.08,1843.2,893.7,1837.83,896.84z"/>
				<path class="st12" d="M1837.83,896.84c5.37-3.15,10.9-5.76,15.29-7.92c9.04-4.44,18.07-8.88,27.11-13.32
					c9.07-4.45,18.14-8.91,27.2-13.36l20.76,41.31c-73.64,54.91-97.51,46.46-107.53,28.48
					C1811.76,916.07,1824.32,904.76,1837.83,896.84z"/>
			</g>
		</g>
		<g>
			<path class="st14" d="M1870.67,750.72c0,0,6.9,16.6,12.5,33.41c5.6,16.81,9.48,36.21,1.72,40.09
				c-7.76,3.88-35.35-10.56-51.3-24.79c-9.05-8.07-7.85-24.34-3.23-33.63c4.26-8.56,12.85-16.54,23.25-17.68
				c2.6-0.29,5.25-0.09,7.83,0.32C1862.81,748.66,1870.16,749.51,1870.67,750.72z"/>
			<path class="st8" d="M1836.18,794.48c0,0,10.1,8.19,9.79,0c-0.31-8.19-10.44-19.61-1.82-29.75c8.62-10.13,26.3,0,30.18-8.84
				s-10.78-41.82-38.15-23.28c-27.37,18.54-5.17,18.32-28.45,36.43c-20.89,16.25,7.5,42.58,23.92,47.91
				c3.1,1.01,6.66,1.85,9.94,1.35c3.71-0.56,2.75-3.43,1.93-6.4c-0.65-2.37-1.56-4.68-2.5-6.95
				C1839.91,802.29,1838.38,796.26,1836.18,794.48z"/>
			<path class="st14" d="M1840.06,792.32c0,0-13.15-10.35-17.89-4.53c-4.74,5.82,2.16,19.18,14.66,22.63
				c12.5,3.45,9.05-3.45,7.54-7.54C1842.86,798.79,1840.06,792.32,1840.06,792.32z"/>
		</g>
	</g>
	<g>
		<g>
			<g>
				<g>
					<polygon class="st14" points="502.83,1197.63 477.71,1250.65 500.28,1261.34 532.86,1211.86 					"/>
					<path class="st8" d="M483.5,1238.43l-13.68,15.42l52.01,38.67c0,0,0.63-18.6-14.81-41.4l-12.42,5.64L483.5,1238.43z"/>
				</g>
				<path class="st19" d="M594.15,877.72c0,0-33.37,51.33-36.12,83.42c-2.75,32.08,10.08,83.88-16.04,124.67
					c-26.12,40.79-71.5,118.25-71.5,118.25l84.79,30.25c0,0,63.01-148.5,72.07-209s10.89-147.58,10.89-147.58H594.15z"/>
			</g>
			<g>
				<g>
					<polygon class="st14" points="668.95,1223.76 668.95,1282.43 693.93,1282.43 702.18,1223.76 					"/>
					<path class="st8" d="M668.95,1268.91l-6.88,23.6h63.48c0,0-6.21-8.22-29.92-22.21l-8.81,10.41L668.95,1268.91z"/>
				</g>
				<path class="st13" d="M613.49,881.62c0,0-16.96,37.12-8.71,84.79c8.25,47.67,55.46,146.67,39.88,275.46h86.62
					c0,0-28.42-284.85-73.33-347.07L613.49,881.62z"/>
			</g>
		</g>
		<g>
			<g>
				<path class="st14" d="M588.36,777.44c0,0,15.57-19.45-4.36-28.57c-19.94-9.12-76.47,83.04-80.47,101.8
					c-4,18.76,1.2,94.83,3.87,104.94c0,0-8.17,30.44-2.84,35.58c5.33,5.14,13.78-24.67,13.78-24.67s5.49,1.3,7.6,6
					c2.12,4.7,6.44,4.26-0.86-12.81c0,0,1.11-70.41,3.8-84.54C531.56,861.05,579.87,789.18,588.36,777.44z"/>
				<path class="st20" d="M528.87,875.18c2.69-14.13,51-86,59.48-97.73c0,0,15.57-19.45-4.36-28.57
					c-19.94-9.12-76.47,83.04-80.47,101.8c-2.56,12-1.35,47.4,0.55,74.03l21.91-2.4C526.59,903.06,527.54,882.19,528.87,875.18z"/>
			</g>
			<polygon class="st17" points="583.47,684.07 580.26,748.24 610.05,745.26 605.19,694.62 			"/>
			<path class="st10" d="M631.17,751.84c-0.12-0.12-0.25-0.25-0.37-0.37c-11.19-11.11-23.18-18.56-39.54-15.34
				c-11.17,2.2-20.61,9.29-23.45,20.65c-3.06,12.26,2.03,24.5,6.08,35.88c5.99,16.85,11.82,34.41,13.59,52.29
				c2.75,27.84-5.5,49.84-5.5,49.84h75.97c0,0-7.91-37.81-3.09-51.22c4.81-13.41,17.88-35.41,7.22-52.25
				C653.14,777.2,643.01,763.68,631.17,751.84z"/>
			<g>
				<path class="st14" d="M605.19,750.07c0,0-22.18,11.34-7.74,27.84s103.81-44.34,115.16-59.81
					c11.34-15.47,37.81-86.97,39.53-97.28c0,0,19.94-24.41,17.19-31.28s-22.69,16.84-22.69,16.84s-4.47-3.44-4.47-8.59
					c0-5.16-4.12-6.53-4.47,12.03c0,0-29.91,63.75-38.16,75.53C691.29,697.14,617.75,742.86,605.19,750.07z"/>
				<path class="st20" d="M699.54,685.36c-8.25,11.78-81.79,57.5-94.35,64.72c0,0-22.18,11.34-7.74,27.84s103.81-44.34,115.16-59.81
					c7.25-9.89,20.68-42.68,29.88-67.74l-20.96-6.8C713.06,660.86,703.63,679.51,699.54,685.36z"/>
			</g>
		</g>
		<g>
			<path class="st14" d="M612.65,634.77c0,0,11.41,17.62,14.57,35.66s2.36,32.95-9.01,36.88c-11.37,3.93-42.26-23.79-42.26-23.79
				S563.53,641.85,612.65,634.77z"/>
			<path class="st8" d="M590.57,666.88c14.51-4.46,27.55-13.55,36.77-25.6c-2.8-9-12.47-15.45-21.89-15.81
				c-9.42-0.36-18.75,5.72-22.23,14.48c-8.14-4.07-19.6,1.2-25.62,8.03c-6.03,6.83-8.83,15.82-11.71,24.46
				c-2.88,8.64-6.22,17.56-12.94,23.71c-4.92,4.5-11.25,7.12-17.56,9.27c-15.79,5.38-32.29,8.39-48.24,13.28
				c-15.95,4.89-31.73,11.95-43.35,23.93c-16.45,16.96-22.48,43.29-15.04,65.72c6.67,20.1,24.02,34.94,45.01,37.82
				c20.99,2.88,42.26-4.08,60.74-14.43c40.12-22.46,70.43-61.79,81.95-106.3c5.02-19.42,6.07-41.73-5.85-57.87L590.57,666.88z"/>
			<path class="st14" d="M597.68,667.34c0,0-7.56-10.54-11.69-5.27c-4.12,5.27,1.6,19.71,11.69,22.69c10.08,2.98,7.1-6.19,7.1-6.19
				L597.68,667.34z"/>
		</g>
	</g>
	<g>
		<g>
			
				<rect x="1237.83" y="450.02" transform="matrix(-1 -1.224647e-16 1.224647e-16 -1 2589.4624 908.2229)" class="st8" width="113.81" height="8.19"/>
			<polygon class="st8" points="1237.83,458.21 1182.43,353.77 1190.84,353.77 1248.06,450.02 			"/>
		</g>
		<g>
			<g>
				<path class="st21" d="M1393.69,288.56c3.07,4.53,5.56,9.51,7.52,14.21c7.28,17.39,11.8,36.62,10.07,55.55
					c-0.59,6.39-1.91,12.71-4.07,18.76c-15.05,42.09-74.59,62.01-121.54,59.58c-4.57-0.24-9.4-4.76-21.26,3.58
					c-11.86,8.34-18.92,8.69-18.57,3.79c0.41-5.79,3.47-10.74,8.52-13.62c3.89-2.22,8.32-3.11,12.71-3.71
					c3.81-0.52,9.51,0.65,13-0.59c0,0,76.32-27.09,82.01-58.93c2.74-15.33-2.62-29.74-8.68-43.55c-4.27-9.74-9.57-20.49-7.32-31.43
					c1.97-9.58,9.91-18.58,19.97-19.48C1378.29,271.61,1387.28,279.11,1393.69,288.56z"/>
				<path class="st18" d="M1353.4,323.63c-4.27-9.74-9.57-20.49-7.32-31.43c1.96-9.58,9.91-18.58,19.97-19.48
					c12.25-1.1,21.24,6.4,27.65,15.85c3.07,4.53,5.56,9.51,7.52,14.21c7.28,17.39,11.8,36.62,10.07,55.55
					c-0.1,1.1-0.25,2.19-0.4,3.28l-48.82-11.65C1360.6,340.9,1357.13,332.15,1353.4,323.63z"/>
			</g>
			<polygon class="st21" points="1332.45,214.85 1369.74,259.04 1345.82,293.31 1318.66,239.02 			"/>
			<path class="st12" d="M1514.16,453.03c0.1,0-1.91-25.71-2.08-27.15c-2.41-20.87-6.41-41.63-12.5-61.75
				c-7.09-23.42-17.11-46.49-32.33-65.83c-12.51-15.91-29.26-28.4-48.26-35.45c-18.97-7.04-43.25-11.78-61.51-0.3
				c-16.11,10.13-21.26,31.71-19.47,49.58c1.65,16.46,9.33,31.57,17.28,45.8c7.66,13.72,15.96,27.12,22.36,41.5
				c3.29,7.37,6.08,14.98,8.06,22.81c0.53,2.09,4.25,25.24,3.33,25.2C1389.05,447.43,1514.15,453.03,1514.16,453.03z"/>
			<polygon class="st18" points="1360.9,240.93 1379.66,255.62 1338.35,295.78 1326.63,280.11 			"/>
			<g>
				<path class="st22" d="M1424.12,306.63c2.58,5.04,4.49,10.46,5.91,15.52c5.25,18.76,7.41,39.03,3.18,58.21
					c-1.43,6.47-3.61,12.78-6.61,18.69c-20.93,41.19-84.78,53.93-132.78,45.41c-4.68-0.83-9.06-6.09-22.35,0.94
					c-13.28,7.02-20.59,6.47-19.6,1.49c1.17-5.88,4.96-10.55,10.52-12.85c4.29-1.78,8.96-2.12,13.56-2.17
					c3.99-0.04,9.7,1.89,13.45,1.06c0,0,82.05-17.94,92.01-49.83c4.8-15.35,1.14-30.81-3.3-45.74c-3.14-10.53-7.2-22.22-3.48-33.15
					c3.26-9.57,12.6-17.76,23.06-17.39C1410.46,287.28,1418.74,296.12,1424.12,306.63z"/>
				<path class="st18" d="M1378.12,337.37c-3.14-10.53-7.2-22.22-3.48-33.15c3.26-9.57,12.6-17.76,23.06-17.39
					c12.75,0.45,21.03,9.29,26.41,19.8c2.58,5.04,4.49,10.46,5.91,15.52c5.25,18.76,7.41,39.03,3.18,58.21
					c-0.25,1.11-0.54,2.21-0.83,3.31l-48.74-18.22C1383.3,355.99,1380.86,346.58,1378.12,337.37z"/>
			</g>
		</g>
		<g>
			<g>
				<g>
					<polygon class="st22" points="1366.39,678.41 1375.66,720.23 1410.58,720.23 1396.14,678.41 					"/>
					<path class="st8" d="M1405.76,704.48l10.73,27.6h-73.75c0,0-0.62-8.41,10.68-12.72c11.3-4.31,9.7-6.35,19.2-12.81l15.1,8.29
						L1405.76,704.48z"/>
				</g>
				<path class="st23" d="M1359.56,515.97c0,0,32.17,83.2,45.97,175.03h-48.72c0,0-38.37-82.34-47.42-112.95
					c-9.05-30.61-25.43-61.65,0-71.56C1334.82,496.57,1359.56,515.97,1359.56,515.97z"/>
			</g>
			<g>
				<g>
					<polygon class="st22" points="1297.41,678.41 1298.92,720.23 1333.84,720.23 1327.15,678.41 					"/>
					<path class="st8" d="M1331.32,704.48l5.75,27.6h-74.8c0,0-0.65-8.41,11.21-12.72c11.86-4.31,14.99-6.05,24.95-12.51l11.04,7.98
						L1331.32,704.48z"/>
				</g>
				<path class="st11" d="M1514.16,453.03c0,0,2.59,73.72-48.28,84.93c-26.44,5.83-54.29,4.58-81.05,1.94
					c-10.64-1.05-21.23-2.47-31.82-3.89c-9.02-1.22-19.64-3.07-27.78,2.26c-16.31,10.7-3.05,45.08-0.2,60.07
					c5.42,28.54,9.48,57.27,10.13,86.36c0.01,0.54,0.1,6.3,0.09,6.3c-0.01,0-40.52,0-40.52,0c-9.04-26.97-17.56-54.13-25.57-81.42
					c-8.79-29.95-20.09-61.21-19.51-92.82c0.35-19.27,5.74-39.45,23.29-49.94c20.69-12.37,48.55-8.95,71.58-7.98
					c8.67,0.37,17.66,0.97,26.23-0.74c3.49-0.7,6.91-1.78,10.02-3.55c1.48-0.84,7.38-7.16,8.26-7.12
					C1389.04,447.43,1514.16,453.03,1514.16,453.03z"/>
			</g>
		</g>
		<g>
			<path class="st22" d="M1327.93,224.77c0,0,3.88,35.24-8.08,47.53c-11.96,12.29-49.79-40.42-58.52-65.63s22.31-29.42,39.45-25.22
				C1317.9,185.65,1327.33,211.83,1327.93,224.77z"/>
			<path class="st8" d="M1324.48,217.01c0,0,1.08,11.86-5.6,11.86c-6.68,0-28.67-24.57-29.96-39.88c0,0-10.56,4.1-11.86,15.74
				c-1.29,11.64-7.98,38.15-34.27,5.82c-26.3-32.33,3.66-49.15,22.42-47.42c18.75,1.72,28.96,10.78,28.96,10.78
				s38.07-10.38,48.2,6.12c10.13,16.51,5.17,43.67,0,52.51C1337.19,241.36,1324.48,217.01,1324.48,217.01z"/>
			<path class="st22" d="M1320.81,219.59c0,0-1.51-14.87,6.47-12.07c7.98,2.8,13.8,15.52,9.05,27.59
				C1331.59,247.18,1324.05,228.22,1320.81,219.59z"/>
		</g>
	</g>
	<g>
		<path class="st9" d="M2094.72,1137.67v275h115.23v-4.16c0-7.91-3.24-15.33-8.51-21.23c-6.85-7.67-10.88-17.91-10.43-29.1
			c0.85-21.2,18.4-38.72,39.6-39.53c23.52-0.9,42.87,17.9,42.87,41.22c0,10.41-3.86,19.9-10.23,27.15
			c-5.41,6.16-8.75,13.86-8.75,22.06v3.6h115.23v-275H2094.72z"/>
		<path class="st9" d="M2040.23,1233.96c11.2-0.45,21.43,3.58,29.1,10.43c5.9,5.27,13.32,8.51,21.23,8.51h4.16v44.55h-3.6
			c-8.2,0-15.9,3.34-22.06,8.75c-7.25,6.36-16.74,10.23-27.15,10.23c-23.32,0-42.12-19.35-41.22-42.87
			C2001.51,1252.35,2019.03,1234.8,2040.23,1233.96z"/>
		<path class="st9" d="M2424.2,1233.96c-11.2-0.45-21.43,3.58-29.1,10.43c-5.9,5.27-13.32,8.51-21.23,8.51h-4.16v44.55h3.6
			c8.2,0,15.9,3.34,22.06,8.75c7.25,6.36,16.74,10.23,27.15,10.23c23.32,0,42.12-19.35,41.22-42.87
			C2462.93,1252.35,2445.4,1234.8,2424.2,1233.96z"/>
	</g>
	<g>
		<g>
			<path class="st9" d="M1934.82,378.55l-94.06,258.42l108.28,39.41l1.42-3.91c2.7-7.43,2.19-15.52-0.74-22.86
				c-3.81-9.55-4.1-20.55,0.15-30.91c8.05-19.63,30.53-30.09,50.73-23.6c22.41,7.2,34.16,31.48,26.18,53.39
				c-3.56,9.78-10.44,17.38-18.89,22.01c-7.19,3.94-12.96,10.03-15.77,17.73l-1.23,3.38l108.28,39.41l94.06-258.42L1934.82,378.55z"
				/>
			<path class="st9" d="M1850.69,450.39c10.67,3.41,18.92,10.69,23.78,19.75c3.74,6.97,9.61,12.56,17.04,15.26l3.91,1.42
				l-15.24,41.86l-3.38-1.23c-7.7-2.8-16.08-2.3-23.72,0.68c-8.99,3.5-19.23,3.88-29.01,0.32c-21.91-7.98-32.96-32.59-24.07-54.38
				C1808.01,454.43,1830.48,443.93,1850.69,450.39z"/>
		</g>
		<g>
			<g>
				<g>
					<polygon class="st22" points="2197.25,1069.32 2202.07,1127.76 2175.48,1127.76 2165.86,1069.32 					"/>
					<path class="st8" d="M2200.75,1111.77c0,0,7.5,4.76,12.32,26.07h-77.46c0,0-5.96-3.44,10.77-10.08
						c16.73-6.65,25.31-9.06,26.47-15.99l8.36,12.09L2200.75,1111.77z"/>
				</g>
				<path class="st23" d="M2213.07,756.94l-4.12,332.32h-48.93c0,0-38.04-116.87-37.12-146.21c0.92-29.33,24.05-162.84,32.08-188.19
					L2213.07,756.94z"/>
			</g>
			<path class="st8" d="M2188.59,525.37c-2.04-6.65,7.7-10.69,12.38-12.57c11.72-4.69,25.09-4.24,36.3,1.67
				c14.36,7.57,24.08,22.06,29.24,37.44c4.47,13.31,6.05,27.75,13.01,39.95c14.3,25.04,47.25,34.14,63.02,58.28
				c7.17,10.97,10.15,24.34,9.91,37.45c-0.44,23.51-11.99,47.32-32.13,59.45c-20.15,12.13-48.66,10.3-65.03-6.59
				c-11.47-11.84-15.83-28.67-19.74-44.69c-8.66-35.54-17.22-71.2-21.56-107.52c-1.23-10.28-2.13-20.67-4.96-30.63
				c-2.83-9.96-7.77-19.63-15.76-26.21C2190.77,529.35,2189.19,527.33,2188.59,525.37z"/>
			<g>
				<g>
					<polygon class="st22" points="2311.49,1069.32 2321.81,1127.76 2295.22,1127.76 2280.1,1069.32 					"/>
					<path class="st8" d="M2318.98,1111.77c0,0,9.01,4.76,13.82,26.07h-77.46c0,0-5.96-3.44,10.77-10.08
						c16.73-6.65,23.81-9.06,24.97-15.99l9.87,12.09L2318.98,1111.77z"/>
				</g>
				<path class="st11" d="M2180.18,756.04c0,0,18.79,112.3,24.75,140.72c5.96,28.42,69.21,192.5,69.21,192.5h52.25
					c0,0-30.25-218.62-37.58-244.75c-7.33-26.12-27.96-70.58-41.25-86.62L2180.18,756.04z"/>
			</g>
			<g>
				<g>
					<path class="st22" d="M2159.11,724.89c0,0-89.83-12.38-103.24-13.41c0,0-8.94-14.78-13.75-14.09s0,7.22,0,7.22
						s-9.62-2.45-15.12-7.24s-10.66-8.62-7.56,0c6.64,18.51,26.92,29.09,44.36,35.16c20.58,7.16,41.95,13.15,62.97,18.91
						c3.97,1.09,7.95,2.11,11.96,3.02c18.22,4.12,33.69-0.34,39.53-6.88L2159.11,724.89z"/>
					<path class="st19" d="M2120.25,719.27c0,0,50.51-87,60.5-89.72s17.4,2.06,12.48,21.31s-42.39,104-42.39,104L2120.25,719.27z"/>
				</g>
				<polygon class="st21" points="2225.56,564.93 2230.6,628.63 2195.53,645.59 2198.28,569.05 				"/>
				<path class="st13" d="M2255,764.3c0,0,15.47-141.97-29.22-144.03s-51.91,32.31-55.34,42.28c-3.44,9.97-26.12,98.31-26.12,98.31
					L2255,764.3z"/>
				<g>
					<polygon class="st19" points="2228.95,607.78 2233.02,622.02 2202.41,648.34 2196.25,625.81 					"/>
					<polygon class="st19" points="2196.25,625.81 2189.81,639.41 2191.41,617.86 2196.66,614.2 					"/>
				</g>
				<g>
					<path class="st22" d="M2189.81,696.24c0,0-89.83-12.38-103.24-13.41c0,0-8.94-14.78-13.75-14.09s0,7.22,0,7.22
						s-9.62-2.45-15.12-7.24c-5.5-4.79-10.66-8.62-7.56,0c6.64,18.51,26.92,29.09,44.35,35.16c20.58,7.16,41.95,13.15,62.97,18.91
						c3.97,1.09,7.95,2.11,11.96,3.02c18.22,4.12,33.69-0.34,39.53-6.88L2189.81,696.24z"/>
					<path class="st19" d="M2184.19,695.55c0,0,30.59-40.56,46.41-53.62c5.41-4.47,13.75-8.95,20.47-4.46
						c14.3,9.57,3.92,31.02-2.59,41.86c-8.33,13.87-18.31,26.78-28.47,39.35c-0.99,1.22-14.57,15.76-14.03,16.74
						C2205.96,735.4,2184.19,695.55,2184.19,695.55z"/>
				</g>
			</g>
			<g>
				<path class="st22" d="M2225.7,572.36c-7.17,8.46-17.22,14.69-27.51,19.18c-3.05,1.33-6.21,2.56-9.53,2.79
					c-3.32,0.23-6.86-0.66-9.17-3.05c-2.26-2.33-3.05-5.7-3.38-8.92c-0.79-7.66,0.48-15.38,2.2-22.89
					c2.21-9.64,5.26-19.31,11.12-27.28c3.26-4.44,7.49-8.36,12.68-10.17c5.7-1.99,12.07-1.27,17.75,0.79
					c16.91,6.11,19.44,23.06,12.85,38.35C2230.94,565.27,2228.55,568.99,2225.7,572.36z"/>
				<path class="st8" d="M2232.62,561.12c-5.67-1.6-11.82-3.55-15.08-8.46c-3.35-5.05-2.74-12.01-6.27-16.94
					c-2.73-3.81-7.85-5.72-12.41-4.64c-3.37,0.8-6.98,3.04-9.98,1.32c-2.21-1.26-2.89-4.23-2.37-6.72
					c1.24-5.92,7.49-9.39,13.38-10.78c7.48-1.77,15.55-1.45,22.63,1.55C2240.59,524.09,2244.84,546.22,2232.62,561.12z"/>
				<path class="st22" d="M2224.07,562.18c0,0,14.78-8.94,17.19,0s-14.09,24.06-23.03,20.62S2224.07,562.18,2224.07,562.18z"/>
			</g>
		</g>
	</g>
	<g>
		<g>
			<g>
				<g>
					<path class="st14" d="M1161.01,1016.51c0.54,0.68,36.54,43.35,36.54,43.35l19.07-15.25l-32.91-46.26L1161.01,1016.51z"/>
					<path class="st8" d="M1187.8,1048.31c0,0,1.49,4.02-5.41,15.87c-6.9,11.85-9.53,15.07-8.08,22.47l51.07-40.85
						c0,0-3.91-3.22-16.86-12.57l-7.79,18.52L1187.8,1048.31z"/>
				</g>
				<path class="st8" d="M1023.51,682.12c0,0,6.39,93.01,24.41,156.95c18.02,63.94,74.41,169.16,122.07,198.22l32.55-20.93
					c0,0-60.46-100.57-70.34-151.72c-9.88-51.15-2.33-118.59-27.9-188.34L1023.51,682.12z"/>
			</g>
			<g>
				<g>
					<path class="st14" d="M989.21,1024.49c0,0.87,1.45,56.68,1.45,56.68h24.41l3.2-56.68H989.21z"/>
					<path class="st8" d="M990.27,1066.05c0,0-1.35,4.07-14.14,9.01c-12.79,4.94-16.86,5.81-20.35,12.5h65.4
						c0,0-1.04-4.95-5.32-20.35l-17.65,9.6L990.27,1066.05z"/>
				</g>
				<path class="st15" d="M1023.51,696.63c0,0-31.39,116.26-36.62,171.48c-5.23,55.22-5.81,156.37-5.23,183.69h45.34
					c0,0,3.54-96.95,16.86-133.7c13.32-36.75,10.24-25,30.7-70.34s13.48-123.24,9.41-156.95L1023.51,696.63z"/>
			</g>
		</g>
		<g>
			<g>
				<path class="st17" d="M1018.54,569.76c0,0,35.95-48.56,53.74-61.12c7.38-5.21,32.18-10.47,36.1,13.02
					c3.93,23.57-33.64,58.73-74.79,77.89c-40.59,18.9-120.05-16.63-137.27-34.89c-17.23-18.26,22.02,1.73,22.02,1.73l-4.61-10.66
					c0,0-7.58-15.42,21.99,12.03C935.72,567.75,944.87,577.2,1018.54,569.76z"/>
				<path class="st23" d="M1108.38,521.66c-3.91-23.5-28.72-18.23-36.1-13.02c-10.39,7.34-26.97,26.94-38.97,41.99l28.12,33.16
					C1090.06,564.54,1111.38,539.71,1108.38,521.66z"/>
			</g>
			<polygon class="st17" points="1058.96,440.04 1054.9,504.42 1086.29,474.19 1081.64,436.4 			"/>
			<path class="st11" d="M1092.68,479.81c0,0,35.46,9.3,40.11,50.77c4.65,41.47-0.39,71.31-9.3,107.35
				c-8.91,36.04,0.78,65.49,0.78,65.49l-109.67,6.2c0,0-1.94-58.91,17.44-101.92s22.86-103.28,22.86-103.28L1092.68,479.81z"/>
			<path class="st23" d="M1052.28,492.6c-0.58,0.87-6.68,29.07-6.68,29.07l47.09-41.85l-4.42-13.5L1052.28,492.6z"/>
			<path class="st12" d="M918.56,416.64c11.2-0.45,21.43,3.58,29.1,10.43c5.9,5.27,13.32,8.51,21.23,8.51h4.16V320.36h-275v275
				h115.23v-4.16c0-7.91-3.24-15.33-8.51-21.23c-6.85-7.67-10.88-17.91-10.43-29.1c0.85-21.2,18.4-38.72,39.6-39.53
				c23.52-0.9,42.87,17.9,42.87,41.22c0,10.41-3.86,19.9-10.23,27.15c-5.41,6.16-8.75,13.86-8.75,22.06v3.6h115.23V480.14h-3.6
				c-8.2,0-15.9,3.34-22.06,8.75c-7.25,6.36-16.74,10.23-27.15,10.23c-23.32,0-42.12-19.35-41.22-42.87
				C879.84,435.04,897.36,417.49,918.56,416.64z"/>
			<g>
				<path class="st14" d="M1018.08,588.32c0,0,41.08-46.89,54.25-57.36c13.18-10.46,37.59-27.9,41.08-4.26s-32.99,79.06-75.4,93.4
					c-42.41,14.34-134.65-8.53-153.25-25.38c-18.6-16.86,22.09,0,22.09,0l-5.43-10.27c0,0-8.76-14.78,22.86,10.27
					C924.3,594.71,945.22,601.49,1018.08,588.32z"/>
				<path class="st23" d="M1113.41,526.7c-3.49-23.64-27.9-6.2-41.08,4.26c-8.42,6.69-28.22,28.23-41.43,42.93l32.76,32.36
					C1094,583.83,1116.17,545.37,1113.41,526.7z"/>
			</g>
		</g>
		<g>
			<path class="st14" d="M1050.83,395.81c0,0-10.75,46.21-9.01,58.13c1.74,11.92,4.36,22.09,17.73,15.7
				c13.37-6.39,25.58-35.93,25.58-35.93s2.62-21.33,0-33.54C1082.51,387.96,1050.83,395.81,1050.83,395.81z"/>
			<path class="st8" d="M1044.04,404.43c-10.08-13.37-9.3-28.1-3.68-30.03c4.93-1.7,7.84,3.76,11.47,5.92
				c5.87,3.49,12.44-2.11,17.81-4.16c15.07-5.73,47.96-6.31,45.51,17.17c-1.74,16.72-8.33,21.57-8.33,21.57s13.37-1.36,11.82,8.72
				c-1.55,10.08-14.53,18.21-28.87,16.08c0,0,8.61-20.25-0.49-13.97c-11.15,7.69-13.47,15.13-13.07,9.71
				c1.31-18.02,10.33-22.51,2.08-27.91C1078.3,407.52,1052.78,416.03,1044.04,404.43z"/>
			<path class="st14" d="M1083.59,428.09c2.35-3.8,6.63-9.44,10.64-5.44c4.65,4.65,3.29,15.7-5.33,22.48
				c-2.42,1.9-5.19,2.52-7.26-0.12c-3.67-4.7-1.64-10.77,1.04-15.4C1082.94,429.16,1083.25,428.64,1083.59,428.09z"/>
			<path class="st8" d="M1077.25,431.57c-1.29,1.84-2.42,3.58-3.03,4.28c-4.57,5.2-10.74,11.2-17.96,11.99
				c-10.65,1.16-13.99-6.07-14-6.07c0.14,0.76-13.8,28.73-0.09,41.48c4.93,4.58,15.85-5.35,20.58-9.89
				c8.31-7.97,15.25-17.92,18.75-28.96c1.61-5.09,2.68-10.35,3.75-15.58c0.35-1.71,2.49-8.99,0.34-10.2
				C1084.22,417.84,1079.42,428.46,1077.25,431.57z"/>
		</g>
	</g>
	<g>
		<rect x="444.84" y="1299.39" class="st6" width="13.75" height="63.17"/>
		
			<rect x="719.59" y="1299.39" transform="matrix(-1 -1.224647e-16 1.224647e-16 -1 1452.9349 2661.9453)" class="st6" width="13.75" height="63.17"/>
		<rect x="432.01" y="1292.51" class="st6" width="314.17" height="13.75"/>
	</g>
	<g>
		<g>
			<path class="st6" d="M278.75,355.57l-4.67-2.91c1.7-2.74,3.51-5.48,5.36-8.15l4.52,3.14
				C282.16,350.25,280.4,352.91,278.75,355.57z"/>
		</g>
		<g>
			<path class="st6" d="M544.48,437.14c-1.99,0-3.98-0.1-5.92-0.3l0.57-5.47c5.83,0.61,12.03,0.2,18-1.2l1.25,5.35
				C553.79,436.6,549.12,437.14,544.48,437.14z M527.35,434.41c-6.37-2.17-11.87-5.53-16.35-10l-0.72-0.73l3.98-3.79l0.62,0.64
				c3.88,3.87,8.67,6.79,14.23,8.69L527.35,434.41z M569.17,431.93l-2.2-5.04c5.49-2.4,10.68-5.64,15.42-9.62l3.54,4.21
				C580.78,425.8,575.14,429.32,569.17,431.93z M503.55,414.2c-2.95-5.71-4.67-12.23-5.12-19.37l5.49-0.34
				c0.4,6.37,1.92,12.15,4.52,17.18L503.55,414.2z M593.99,413.59l-4.12-3.64c3.97-4.51,7.47-9.6,10.38-15.13l4.87,2.56
				C601.99,403.3,598.25,408.75,593.99,413.59z M609.69,387.15l-5.15-1.93c2.15-5.76,3.68-11.76,4.55-17.84l5.45,0.78
				C613.61,374.63,611.98,381.02,609.69,387.15z M504.22,384.12l-5.46-0.64c0.74-6.37,2.37-12.79,4.83-19.09l5.12,2
				C506.42,372.26,504.91,378.22,504.22,384.12z M615.41,356.98l-5.5-0.09l0.01-1.18c0-5-0.47-9.94-1.38-14.71
				c-0.15-0.79-0.32-1.58-0.49-2.37l5.37-1.19c0.19,0.84,0.36,1.68,0.52,2.52c0.98,5.1,1.48,10.4,1.48,15.75L615.41,356.98z
				 M513.21,356.92l-4.79-2.7c0.3-0.53,0.6-1.05,0.91-1.57c2.99-5.03,6.44-9.89,10.25-14.44l4.22,3.53
				c-3.62,4.33-6.9,8.95-9.74,13.72C513.77,355.94,513.48,356.43,513.21,356.92z M290.32,339.03l-4.33-3.39
				c3.92-5.01,8.16-9.93,12.6-14.61l3.99,3.79C298.26,329.37,294.14,334.15,290.32,339.03z M530.98,333.94l-3.86-3.92
				c4.49-4.44,9.49-8.65,14.84-12.54l3.23,4.45C540.06,325.66,535.28,329.7,530.98,333.94z M605.15,328.5
				c-2-5.71-4.63-11.35-7.8-16.75l4.74-2.78c3.35,5.7,6.13,11.66,8.25,17.71L605.15,328.5z M310.17,317.22l-3.79-3.99
				c4.6-4.37,9.5-8.62,14.55-12.64l3.42,4.3C319.43,308.82,314.66,312.97,310.17,317.22z M554.05,316.02l-2.88-4.69
				c5.33-3.27,11.07-6.34,17.07-9.11l2.31,4.99C564.75,309.9,559.2,312.86,554.05,316.02z M580.41,303.01l-2.01-5.12
				c2.29-0.9,4.62-1.76,7-2.6c-1.93-2.19-3.96-4.32-6.07-6.38l3.84-3.94c2.77,2.7,5.41,5.52,7.87,8.44
				c1.86-0.59,3.74-1.17,5.63-1.71l1.53,5.28c-1.16,0.34-2.31,0.68-3.46,1.04c0.41,0.54,0.82,1.09,1.22,1.64l-4.43,3.25
				c-0.76-1.04-1.55-2.07-2.36-3.09C586.18,300.83,583.26,301.9,580.41,303.01z M332.93,298.43l-3.21-4.47
				c5.14-3.7,10.55-7.26,16.08-10.59l2.84,4.71C343.24,291.33,337.95,294.81,332.93,298.43z M608.59,294.22l-1.28-5.35
				c6.12-1.47,12.47-2.74,18.87-3.78l0.88,5.43C620.79,291.54,614.57,292.79,608.59,294.22z M637.73,289.02l-0.67-5.46
				c6-0.74,12.24-1.35,19.07-1.88l0.42,5.48C649.8,287.68,643.64,288.29,637.73,289.02z M667.35,286.43l-0.32-5.49
				c5.62-0.33,11.68-0.62,19.07-0.91l0.22,5.49C678.96,285.82,672.93,286.1,667.35,286.43z M697.18,285.12l-0.2-5.5l2.43-0.09
				c5.53-0.2,11.06-0.39,16.58-0.63l0.23,5.49c-5.53,0.23-11.08,0.43-16.62,0.63L697.18,285.12z M727.12,283.9l-0.29-5.49
				c6.91-0.37,13.09-0.79,18.91-1.28l0.47,5.48C740.33,283.1,734.08,283.53,727.12,283.9z M357.97,282.74l-2.62-4.83
				c5.58-3.03,11.38-5.9,17.25-8.53l2.25,5.02C369.11,276.97,363.43,279.78,357.97,282.74z M571.38,281.85
				c-4.78-3.89-9.92-7.46-15.28-10.62l2.79-4.74c5.59,3.29,10.97,7.03,15.96,11.09L571.38,281.85z M757.1,281.53l-0.61-5.47
				c6.6-0.74,12.72-1.59,18.69-2.61l0.93,5.42C770.03,279.92,763.81,280.79,757.1,281.53z M786.9,276.81l-1.15-5.38
				c6.09-1.3,12.24-2.85,18.26-4.61l1.54,5.28C799.41,273.9,793.13,275.48,786.9,276.81z M384.76,270.2l-2.04-5.11
				c5.92-2.36,12.01-4.53,18.12-6.47l1.66,5.24C396.52,265.76,390.55,267.89,384.76,270.2z M816.04,268.8l-1.76-5.21
				c5.89-1.99,11.82-4.23,17.62-6.66l2.12,5.07C828.11,264.48,822.06,266.77,816.04,268.8z M546.7,266.23
				c-1.66-0.79-3.33-1.55-5.02-2.27c-3.98-1.69-8.13-3.22-12.33-4.56l1.67-5.24c4.36,1.39,8.67,2.98,12.81,4.74
				c1.76,0.75,3.51,1.54,5.24,2.37L546.7,266.23z M412.83,260.83l-1.44-5.31c6.16-1.68,12.46-3.15,18.73-4.39l1.06,5.4
				C425.04,257.74,418.87,259.19,412.83,260.83z M844.08,257.55l-2.33-4.98c5.66-2.64,11.3-5.52,16.79-8.56l2.67,4.81
				C855.61,251.92,849.85,254.86,844.08,257.55z M519.07,256.53c-5.92-1.43-12.12-2.55-18.42-3.32l0.67-5.46
				c6.51,0.8,12.91,1.96,19.04,3.43L519.07,256.53z M441.78,254.67l-0.84-5.44c6.43-1,12.86-1.75,19.11-2.23l0.42,5.48
				C454.36,252.96,448.07,253.7,441.78,254.67z M489.98,252.22c-6.12-0.39-12.47-0.49-18.77-0.3l-0.16-5.5
				c6.48-0.19,13-0.09,19.28,0.31L489.98,252.22z M870.7,243.31l-2.85-4.7c5.34-3.24,10.65-6.71,15.77-10.32l3.17,4.5
				C881.57,236.46,876.15,240,870.7,243.31z M895.65,226.28l-3.34-4.37c4.98-3.8,9.88-7.82,14.58-11.94l3.63,4.13
				C905.73,218.3,900.72,222.4,895.65,226.28z M918.63,206.69l-3.79-3.99c4.54-4.31,8.99-8.83,13.22-13.43l4.05,3.72
				C927.8,197.69,923.26,202.3,918.63,206.69z M939.39,184.75l-4.19-3.56c4.06-4.78,7.99-9.76,11.68-14.79l4.43,3.25
				C947.53,174.79,943.53,179.87,939.39,184.75z M957.62,160.67l-4.56-3.07c3.5-5.21,6.85-10.59,9.95-16l4.77,2.73
				C964.61,149.86,961.2,155.35,957.62,160.67z"/>
		</g>
		<g>
			<path class="st6" d="M973.16,134.43l-4.89-2.52c1.46-2.82,2.87-5.69,4.21-8.55l4.98,2.34
				C976.1,128.61,974.65,131.55,973.16,134.43z"/>
		</g>
	</g>
	<g>
		<path class="st6" d="M2234.98,401.25c-2.99-5.4-6.54-10.6-10.54-15.46l4.24-3.5c4.22,5.12,7.95,10.59,11.11,16.29L2234.98,401.25z
			 M2217.21,377.87c-4.32-4.31-9.14-8.4-14.33-12.17l3.23-4.45c5.42,3.94,10.46,8.22,14.98,12.73L2217.21,377.87z M2193.92,359.71
			c-5.22-3.2-10.84-6.18-16.71-8.86l2.28-5c6.07,2.77,11.89,5.85,17.3,9.17L2193.92,359.71z M2167.22,346.67
			c-5.77-2.21-11.84-4.2-18.04-5.91l1.46-5.3c6.37,1.75,12.61,3.8,18.55,6.07L2167.22,346.67z M1958.27,338.56
			c-6.71-0.05-13.23-0.28-19.39-0.68l0.35-5.49c6.06,0.39,12.48,0.61,19.08,0.66L1958.27,338.56z M1969.33,338.5l-0.1-5.5
			c5.96-0.11,12.23-0.33,19.15-0.68l0.28,5.49C1981.69,338.16,1975.36,338.39,1969.33,338.5z M2138.64,338.16
			c-6.11-1.35-12.41-2.46-18.73-3.31l0.73-5.45c6.47,0.87,12.93,2.01,19.19,3.39L2138.64,338.16z M1999.68,337.17l-0.35-5.49
			c6.39-0.4,12.79-0.86,19.18-1.33l0.4,5.49C2012.49,336.31,2006.08,336.77,1999.68,337.17z M1927.8,336.95
			c-6.81-0.71-13.3-1.69-19.29-2.9l1.09-5.39c5.82,1.17,12.13,2.12,18.77,2.82L1927.8,336.95z M2029.88,335.04l-0.4-5.49
			c6.42-0.46,12.83-0.91,19.25-1.28l0.32,5.49C2042.66,334.13,2036.26,334.58,2029.88,335.04z M2109.1,333.66
			c-2.85-0.25-5.69-0.44-8.51-0.58c-3.51-0.18-7.02-0.3-10.53-0.36l0.11-5.5c3.56,0.07,7.13,0.19,10.7,0.37
			c2.89,0.15,5.8,0.34,8.71,0.6L2109.1,333.66z M2060,333.19l-0.25-5.49c6.95-0.31,13.27-0.48,19.34-0.54l0.05,5.5
			C2073.14,332.71,2066.87,332.88,2060,333.19z M1897.63,331.47c-6.56-1.81-12.79-4.03-18.51-6.59l2.25-5.02
			c5.46,2.45,11.43,4.57,17.72,6.31L1897.63,331.47z M1869.08,319.75l-0.43-0.25c-5.59-3.28-10.83-7.13-15.55-11.44l3.71-4.06
			c4.44,4.06,9.37,7.68,14.63,10.76l0.4,0.23L1869.08,319.75z M1813.13,304.04c-2.48,0-4.97-0.03-7.45-0.09l0.13-5.5
			c2.49,0.06,5.01,0.07,7.48,0.09c3.86,0,7.76-0.07,11.6-0.22l0.21,5.5C1821.14,303.97,1817.17,304.06,1813.13,304.04z
			 M1794.59,303.49c-6.42-0.38-12.93-0.97-19.34-1.74l0.66-5.46c6.3,0.76,12.69,1.33,19,1.71L1794.59,303.49z M1836.17,303.2
			l-0.41-5.48c2.4-0.18,4.8-0.39,7.21-0.62c-3.41-4.44-6.28-9.11-8.54-13.95l4.98-2.33c2.54,5.42,5.91,10.65,10.01,15.53l-0.06,0.05
			c1.8-0.22,3.59-0.45,5.37-0.7l0.76,5.45C1849.14,302.02,1842.64,302.72,1836.17,303.2z M1764.26,300.23
			c-6.35-0.99-12.77-2.18-19.08-3.55l1.17-5.38c6.2,1.34,12.51,2.52,18.76,3.49L1764.26,300.23z M1866.45,299.39l-0.97-5.41
			c2.5-0.45,5-0.93,7.49-1.44c4.03-0.83,7.65-1.69,11.06-2.64l1.47,5.3c-3.53,0.98-7.27,1.88-11.42,2.73
			C1871.54,298.45,1869,298.94,1866.45,299.39z M1734.38,294.15c-6.24-1.58-12.53-3.36-18.67-5.29l1.65-5.24
			c6.05,1.91,12.22,3.66,18.36,5.2L1734.38,294.15z M1896.21,291.69l-1.98-5.13c6.32-2.44,11.78-5.38,16.24-8.73l3.3,4.4
			C1908.84,285.93,1903.1,289.02,1896.21,291.69z M1705.19,285.35c-6.06-2.13-12.16-4.48-18.11-6.98l2.13-5.07
			c5.86,2.46,11.85,4.77,17.81,6.87L1705.19,285.35z M1922.21,274.26l-4.22-3.52c1.16-1.39,2.22-2.85,3.17-4.36
			c2.18-3.48,3.74-7.36,4.64-11.56l5.38,1.15c-1.03,4.82-2.84,9.31-5.36,13.33C1924.74,271.01,1923.53,272.68,1922.21,274.26z
			 M1676.92,273.91c-5.87-2.7-11.72-5.6-17.39-8.62l2.58-4.85c5.58,2.97,11.33,5.82,17.1,8.47L1676.92,273.91z M1830.46,272.39
			c-0.47-1.76-0.88-3.53-1.19-5.27c-0.63-3.46-0.96-7.04-0.96-10.64c0-1.36,0.05-2.71,0.14-4.06l5.49,0.37
			c-0.08,1.23-0.12,2.46-0.13,3.7c0,3.26,0.29,6.51,0.86,9.64c0.29,1.59,0.66,3.21,1.1,4.83L1830.46,272.39z M1649.83,259.91
			c-5.6-3.23-11.16-6.66-16.51-10.2l3.03-4.59c5.27,3.48,10.73,6.85,16.23,10.03L1649.83,259.91z M1926.66,244.57
			c-0.25-5.99-1.76-12.03-4.39-17.46l4.95-2.39c2.95,6.1,4.66,12.89,4.93,19.63L1926.66,244.57z M1624.17,243.44
			c-5.27-3.75-10.48-7.69-15.47-11.73l3.46-4.28c4.91,3.97,10.03,7.85,15.2,11.53L1624.17,243.44z M1835.58,242.44l-5.33-1.36
			c1.69-6.62,4.4-12.8,8.04-18.38l4.6,3.01C1839.59,230.78,1837.13,236.41,1835.58,242.44z M1600.19,224.57
			c-4.88-4.24-9.67-8.68-14.25-13.2l3.86-3.92c4.5,4.44,9.2,8.8,13.99,12.96L1600.19,224.57z M1916.7,218.46
			c-1.7-2.03-3.59-3.87-5.61-5.47c-2.62-2.07-5.54-3.82-8.68-5.23l2.25-5.02c3.55,1.59,6.86,3.58,9.84,5.93
			c2.32,1.83,4.48,3.94,6.42,6.25L1916.7,218.46z M1849.45,217.61l-3.89-3.89c2.01-2.02,4.18-3.87,6.45-5.51
			c3.16-2.28,6.63-4.21,10.32-5.74l2.11,5.08c-3.3,1.37-6.39,3.09-9.2,5.12C1853.2,214.13,1851.26,215.8,1849.45,217.61z
			 M1892.54,204.68c-5.88-1.13-12.12-1.15-18.13-0.06l-0.98-5.41c6.67-1.21,13.61-1.19,20.15,0.07L1892.54,204.68z M1578.19,203.43
			c-4.43-4.71-8.75-9.62-12.84-14.58l4.25-3.5c4.01,4.87,8.25,9.68,12.6,14.31L1578.19,203.43z"/>
	</g>
	<polygon class="st6" points="1122.69,303.99 1152.49,252.39 1092.9,252.39 	"/>
	<path class="st6" d="M1163.82,215.49h-82.26c-16.96,0-30.71,13.75-30.71,30.71s13.75,30.71,30.71,30.71h82.26
		c16.96,0,30.71-13.75,30.71-30.71S1180.79,215.49,1163.82,215.49z"/>
	
		<ellipse transform="matrix(0.9246 -0.381 0.381 0.9246 -9.1503 446.1743)" class="st23" cx="1122.47" cy="246.2" rx="7.43" ry="7.43"/>
	
		<ellipse transform="matrix(0.7071 -0.7071 0.7071 0.7071 146.467 846.0046)" class="st23" cx="1094.45" cy="246.2" rx="7.43" ry="7.43"/>
	
		<ellipse transform="matrix(0.7071 -0.7071 0.7071 0.7071 162.8799 885.6289)" class="st23" cx="1150.49" cy="246.2" rx="7.43" ry="7.43"/>
	<g>
		<path class="st6" d="M2377.13,255.62h-311.82c-1.52,0-2.75-1.23-2.75-2.75c0-27.94,22.73-50.67,50.68-50.67
			c11.8,0,23.09,4.08,32.15,11.55c13.9-23.77,39.22-38.4,66.89-38.4c33.3,0,62.41,21.07,73.13,52.05c8.99-15.51,25.5-25.2,43.8-25.2
			c27.94,0,50.67,22.73,50.67,50.67C2379.88,254.39,2378.65,255.62,2377.13,255.62z M2068.14,250.12h306.15
			c-1.42-23.63-21.1-42.42-45.08-42.42c-18.5,0-34.94,11.1-41.89,28.28c-0.45,1.11-1.5,1.79-2.74,1.71
			c-1.19-0.09-2.19-0.93-2.47-2.09c-7.94-32.24-36.65-54.75-69.82-54.75c-26.79,0-51.21,14.75-63.72,38.5
			c-0.4,0.76-1.14,1.29-1.98,1.43c-0.86,0.14-1.71-0.13-2.34-0.72c-8.43-7.98-19.44-12.38-31-12.38
			C2089.25,207.7,2069.57,226.49,2068.14,250.12z"/>
	</g>
</g>
</svg>
