<?xml version="1.0" encoding="utf-8"?>
<!-- Generator: Adobe Illustrator 26.3.1, SVG Export Plug-In . SVG Version: 6.00 Build 0)  -->
<svg version="1.1"
	 id="svg16" xmlns:rdf="http://www.w3.org/1999/02/22-rdf-syntax-ns#" xmlns:svg="http://www.w3.org/2000/svg" xmlns:sodipodi="http://sodipodi.sourceforge.net/DTD/sodipodi-0.dtd" xmlns:cc="http://creativecommons.org/ns#" xmlns:inkscape="http://www.inkscape.org/namespaces/inkscape" xmlns:dc="http://purl.org/dc/elements/1.1/"
	 xmlns="http://www.w3.org/2000/svg" xmlns:xlink="http://www.w3.org/1999/xlink" x="0px" y="0px" viewBox="0 0 260 181.33"
	 style="enable-background:new 0 0 260 181.33;" xml:space="preserve">
<style type="text/css">
	.st0{fill:#FFFFFF;}
	.st1{fill:#222222;}
</style>
<sodipodi:namedview  bordercolor="#666666" borderopacity="1" gridtolerance="10" guidetolerance="10" id="namedview18" inkscape:current-layer="svg16" inkscape:cx="130" inkscape:cy="90.665001" inkscape:pageopacity="0" inkscape:pageshadow="2" inkscape:window-height="480" inkscape:window-maximized="0" inkscape:window-width="686" inkscape:window-x="0" inkscape:window-y="0" inkscape:zoom="1.2192308" objecttolerance="10" pagecolor="#ffffff" showgrid="false">
	</sodipodi:namedview>
<path id="path4" class="st0" d="M123.22,0.29L0.07,123.3h136.78l47.9-47.87V0.32h-32.54"/>
<g id="g14" transform="matrix(1.6719825,0,0,-1.6719825,124.84631,120.37177)">
	<g id="g12" transform="scale(0.24,0.24)">
		<path id="path6" d="M-174.57,128.83L-310.83-7.36h136.27L-174.57,128.83"/>
		<path id="path8" d="M-46.7,69.34l76.64-76.6l306.87,306.54H-4.06l-119.38-119.31V-7.2h81.08l-76.52,76.47l76.51,76.58h72.33
			l-76.78-76.83L-46.7,69.34"/>
		<path id="path10" class="st1" d="M-123.42-81.02h18.68v-30.3l21.7,30.3h20.93l-25.78-32.21l28.43-37.89h-23.23l-22.07,32.51
			v-32.51h-18.69v70.1h0.02L-123.42-81.02L-123.42-81.02z M-54.32-75.35h17.81v-75.77h-17.82L-54.32-75.35L-54.32-75.35
			L-54.32-75.35z M5.84-127.49c-5.23,0-9-0.57-11.3-1.7c-2.31-1.12-3.45-2.95-3.45-5.45c0-1.8,0.61-3.27,1.85-4.4
			c1.23-1.12,2.87-1.67,4.9-1.67c3.23,0,5.87,1.08,7.93,3.25c2.05,2.16,3.08,5,3.08,8.49v1.48C8.84-127.49,5.84-127.49,5.84-127.49z
			 M25.61-123.95v-27.18H10.18l-0.39,8.08c-2.1-2.98-4.65-5.19-7.63-6.58c-2.98-1.4-6.57-2.09-10.78-2.09
			c-5.27,0-9.46,1.49-12.59,4.49c-3.12,2.98-4.69,7-4.69,11.98c0,5.75,2.28,10.01,6.81,12.8c4.55,2.77,11.54,4.16,20.97,4.16h6.96
			v0.69c0,2.84-1.08,5.02-3.25,6.52c-2.16,1.51-5.33,2.28-9.47,2.28c-2.03,0-4.37-0.36-6.95-1.08c-2.6-0.73-5.4-1.78-8.38-3.17
			l-0.3,11.73c2.89,1.21,6.02,2.13,9.39,2.71c3.37,0.59,7.08,0.89,11.13,0.89c8.48,0,14.71-2.11,18.67-6.34
			C23.62-108.28,25.61-114.9,25.61-123.95l0,0.02L25.61-123.95z M67.36-110.81c-3.51,0-6.32-1.24-8.38-3.75
			c-2.08-2.48-3.11-5.9-3.11-10.18c0-4.36,0.98-7.79,2.95-10.26c1.97-2.47,4.69-3.71,8.13-3.71c3.27,0,5.86,1.21,7.81,3.63
			c1.93,2.43,2.9,5.67,2.9,9.69c0,4.36-0.96,7.87-2.88,10.54C72.84-112.15,70.37-110.81,67.36-110.81L67.36-110.81z M38.05-75.35
			h17.82v-31.01c2.06,2.87,4.51,5.03,7.32,6.44c2.8,1.41,6.06,2.12,9.75,2.12c6.97,0,12.53-2.4,16.69-7.22
			c4.15-4.82,6.24-11.29,6.24-19.41c0-8.22-2.14-14.85-6.41-19.91c-4.28-5.05-9.85-7.57-16.73-7.57c-4.1,0-7.75,0.97-10.97,2.86
			c-3.2,1.9-5.82,4.68-7.82,8.34v-10.41H38.05L38.05-75.35L38.05-75.35z M107.35-99.17h17.81v-51.96h-17.81V-99.17L107.35-99.17z
			 M107.35-75.35h17.81V-89.8h-17.81V-75.35z M193.22-120.73v-30.39h-17.66v26.69c0,4.08-0.72,7.12-2.18,9.11
			c-1.45,1.98-3.63,2.98-6.59,2.98c-3.09,0-5.56-1.25-7.43-3.76c-1.85-2.49-2.78-5.83-2.78-10.05v-24.96h-17.81v51.95h16.18v-9.33
			c2.04,3.49,4.68,6.15,7.91,7.97c3.21,1.82,6.84,2.74,10.88,2.74c6.35,0,11.18-1.96,14.49-5.84
			C191.55-107.55,193.23-113.25,193.22-120.73"/>
	</g>
</g>
</svg>
