<svg id="Layer_1" data-name="Layer 1" xmlns="http://www.w3.org/2000/svg" viewBox="0 0 1628.38 880.03"><g id="LOGO_NAME_01" data-name="LOGO&amp;NAME 01"><path d="M615.28,309.69c-65.41,0-114,51.26-156.45,92.8l-17.72,18.17c-21.68-53.24-84.43-111-146.69-111-74.25,0-126.4,53.91-126.4,129.05,0,70.71,56.57,130.82,133.47,130.82,66.29,0,114.91-51.27,157.34-93.69,0,0,0,0,0,0l14.59-15.36c25.64,47.6,87.34,109,149.77,109,74.26,0,126.41-53.92,126.41-130.82C749.64,369.79,693.07,309.69,615.28,309.69ZM301.49,517.41c-44.19,0-77.79-36.24-77.79-78.67,0-44.2,31.88-74.81,76-76.9,43.72-2.07,102.35,27.27,139,61.26l-15.26,15.64C389,470.56,352.76,517.41,301.49,517.41Zm317.33.93c-40,1.23-100.6-26.79-143.43-59.82l18.79-19.78c32.23-32.53,69.67-77.64,122.87-76.9,43.31.6,76.9,35.35,76.9,76.9C694,483.82,666.66,516.88,618.82,518.34ZM877.33,440c0,233.06-188.93,422-422,422s-422-188.94-422-422,188.94-422,422-422S877.33,207,877.33,440Z"/><path d="M986.77,258.49c-.62,42.8,31.94,75.57,73.11,74.75,33.38,0,60.62-19.46,67.58-51.61l-12.7-3.28c-6.75,28.06-27.85,43-54.88,43-34.2,0-59.8-25.4-59.8-62.87s25.6-62.88,59.8-62.88c26.83,0,47.92,14.14,54.68,39.53l12.7-3.07c-7-29.7-34.41-48.33-67.38-48.33C1018.71,182.92,986.15,215.68,986.77,258.49Z"/><path d="M1141.39,301.9c0,19.66,14.95,31.34,39.73,31.34,18.63,0,34.81-7.38,42-18.84h.21v15.77h12.08v-78c0-20.28-17.2-33.59-43.42-33.59-13.31,0-24.37,3.28-33.38,10a40.5,40.5,0,0,0-16.18,26.82l12.08,2.67c3.08-18,16.8-28.47,37.48-28.47,18.23,0,30.31,8,30.31,20.28,0,9.62-8.4,14.13-33,18C1154.29,273.64,1141.39,282.86,1141.39,301.9Zm81.71-8.8c0,16-17.82,29.08-39.73,29.08q-29.49,0-29.49-20.28c0-12.49,10.24-19.25,37.89-24,19-3.07,27.44-6.35,30.92-12.28h.41Z"/><path d="M1253.2,292.69a41.1,41.1,0,0,0,17.21,29.69c10.24,7.17,23.34,10.86,39.11,10.86,29.49,0,48.54-12.29,48.54-31.13,0-18.43-13.31-27-50.79-32.77-29.29-4.5-38.09-9.21-38.09-20.27,0-11.68,13.31-19.87,32.76-19.87,20.69,0,36,10.45,39.33,26.62l11.67-2.25c-3.28-20.27-24.58-35-51-35s-44.85,12.7-44.85,30.93c0,17,12.5,25.19,49.77,30.51,28.88,4.1,39.12,9.83,39.12,22.12,0,12.49-14.14,20.48-36.46,20.48-26,0-42-11.47-44.64-32.15Z"/><path d="M1372.8,301.9c0,19.66,15,31.34,39.73,31.34,18.64,0,34.82-7.38,42-18.84h.2v15.77h12.08v-78c0-20.28-17.2-33.59-43.41-33.59-13.31,0-24.37,3.28-33.38,10a40.5,40.5,0,0,0-16.18,26.82l12.08,2.67c3.07-18,16.79-28.47,37.48-28.47,18.22,0,30.31,8,30.31,20.28,0,9.62-8.4,14.13-33,18C1385.7,273.64,1372.8,282.86,1372.8,301.9Zm81.72-8.8c0,16-17.82,29.08-39.73,29.08q-29.49,0-29.49-20.28c0-12.49,10.24-19.25,37.88-24,19-3.07,27.45-6.35,30.93-12.28h.41Z"/><path d="M987.59,454.58c0,34.2,24.78,57.35,57.75,57.35,18,0,33.79-7.58,42.8-19.25h.41v16.17h11.88V359.35h-12.29v57.14h-.41c-9.21-12.08-25.19-19.25-43.42-19.25C1012.57,397.24,987.59,421.61,987.59,454.58Zm100.55,11.88c.62,18-19.46,35-42.19,34.41-27,0-46.08-17.82-46.08-46.29,0-27.64,19.25-46.28,45.06-46.28,24.16,0,43.21,16,43.21,34.4Z"/><path d="M1121.31,454.58c0,33,24.58,57.35,58.37,57.35,33,.61,58.78-24.78,58.16-57.35.62-32.56-25.19-57.95-58.16-57.34C1145.89,397.24,1121.31,421.61,1121.31,454.58Zm104.25,0c0,27.65-19,46.29-45.88,46.29-26.62,0-46.08-18.64-46.08-46.29s19.46-46.28,46.08-46.28C1206.51,408.3,1225.56,426.94,1225.56,454.58Z"/><path d="M984.72,637.37c2.46,33.58,26.83,53.25,65.94,53.25,33.18,0,55.3-15.77,55.3-40.14,0-23.56-16.18-35-59.6-44-34.2-7-44.64-13.1-44.64-26.82,0-16.18,15.56-26.83,38.7-26.83,24.78,0,42.19,13.51,45.47,35.43l12.9-2.46c-3.69-26.42-27.65-44.65-58.37-44.65s-51.61,16-51.61,38.92c0,20.47,13.93,29.9,54.28,38.09,37.47,7.37,49.76,15.36,49.76,32.76,0,17.21-16.38,28.06-42,28.06-32.57,0-50.59-14.74-53.25-43.42Z"/><path d="M1119.88,659.28c0,19.66,14.95,31.34,39.73,31.34,18.64,0,34.82-7.38,42-18.85h.21v15.77h12.08v-78c0-20.28-17.2-33.59-43.41-33.59-13.32,0-24.38,3.28-33.39,10a40.62,40.62,0,0,0-16.18,26.83l12.09,2.66c3.07-18,16.79-28.46,37.48-28.46,18.22,0,30.31,8,30.31,20.27,0,9.63-8.4,14.13-33,18C1132.78,631,1119.88,640.23,1119.88,659.28Zm81.71-8.8c0,16-17.81,29.08-39.73,29.08q-29.49,0-29.49-20.28c0-12.49,10.24-19.25,37.89-24,19-3.07,27.44-6.35,30.93-12.29h.4Z"/><path d="M1250.13,671.36c9,11.68,24.78,19.26,42.8,19.26,33,0,57.75-23.15,57.75-57.35,0-33-25-57.34-56.72-57.34-18.23,0-34.21,7.17-43.42,19.25h-.41V538h-12.29v149.5h11.88V671.36Zm88.27-38.09c0,28.47-19.05,46.29-46.08,46.29-22.74.61-42.81-16.39-42.19-34.41V621.39c0-18.43,19-34.4,43.21-34.4C1319.15,587,1338.4,605.62,1338.4,633.27Z"/><path d="M1367.47,634.3c0,33.79,23.15,56.32,56.94,56.32,24.57,0,42.6-10.45,53-30.11l-9.83-6.35c-9.22,17.2-23.55,25.81-43.21,25.81-24.58,0-44.44-17-44.44-41.58h100.14v-4.5c0-34.41-23.34-58-55.91-58C1390.82,575.93,1367.47,600.09,1367.47,634.3Zm12.7-6.15c1.23-23.34,18.84-41.57,44-41.57,24,0,42.4,17.41,43.22,41.57Z"/><path d="M1501,687.54h12.29v-68.4c0-18.84,10.44-29.9,26.21-29.9,4.71,0,9,1,13.72,2l2.87-11.67a59.18,59.18,0,0,0-15.56-2.46c-11.27,0-21.51,5.32-27.24,13.51h-.41V579H1501Z"/></g></svg>