<?xml version="1.0" encoding="utf-8"?>
<!-- Generator: Adobe Illustrator 26.3.1, SVG Export Plug-In . SVG Version: 6.00 Build 0)  -->
<svg version="1.1" id="Camada_1" xmlns="http://www.w3.org/2000/svg" xmlns:xlink="http://www.w3.org/1999/xlink" x="0px" y="0px"
	 viewBox="0 0 421.16 126.1" style="enable-background:new 0 0 421.16 126.1;" xml:space="preserve">
<g>
	<path d="M14.82,20.32c0.14-0.16,0.09-0.36,0.14-0.54c0.52-2.07,2.14-3.51,4.33-3.85c0.49-0.08,0.98-0.1,1.47-0.1
		c4.17,0,8.35,0,12.52-0.01c0.35,0,0.49,0.07,0.51,0.46c0.06,1.76,0.16,3.53,0.25,5.29c0.18,3.85,0.37,7.69,0.55,11.54
		c0.11,2.3,0.21,4.61,0.31,6.91c0.18,3.85,0.36,7.69,0.54,11.54c0.11,2.34,0.21,4.67,0.32,7.01c0.08,1.81,0.17,3.62,0.25,5.48
		c0.21-0.13,0.25-0.3,0.32-0.45c7.26-13.92,14.51-27.85,21.79-41.77c1.84-3.51,4.77-5.4,8.77-5.44c4.79-0.05,9.59-0.01,14.38-0.01
		c0.09,0,0.19,0.01,0.29,0.02c0.02,0.21-0.12,0.34-0.2,0.48C69.81,37.07,58.27,57.26,46.71,77.44c-1.48,2.59-3.85,3.99-6.74,4.56
		c-0.77,0.15-1.55,0.18-2.33,0.18c-5.91,0-11.82-0.01-17.73,0.01c-0.38,0-0.51-0.07-0.53-0.48c-0.27-3.78-0.56-7.55-0.85-11.32
		c-0.34-4.42-0.68-8.85-1.02-13.27c-0.27-3.6-0.53-7.2-0.8-10.8c-0.33-4.42-0.68-8.85-1.02-13.27c-0.27-3.58-0.53-7.17-0.8-10.75
		c-0.01-0.12,0.02-0.26-0.08-0.36C14.82,21.4,14.82,20.86,14.82,20.32z"/>
	<path d="M295.28,14.78c0.7,0.15,1.42,0.11,2.13,0.19c3.62,0.36,7.13,1.14,10.33,2.95c4.52,2.54,7.11,6.47,8.18,11.47
		c0.83,3.87,0.72,7.74-0.17,11.59c-0.07,0.28-0.18,0.35-0.44,0.35c-5.7-0.01-11.41-0.01-17.11,0c-0.31,0-0.38-0.1-0.35-0.39
		c0.06-0.73,0.11-1.46,0.15-2.19c0.08-1.73-0.01-3.44-0.6-5.08c-0.87-2.45-2.69-3.63-5.21-3.9c-3.22-0.34-5.88,0.87-8.2,3
		c-2.23,2.04-3.83,4.54-5.16,7.22c-2.35,4.71-3.83,9.68-4.56,14.88c-0.4,2.82-0.46,5.65,0.26,8.43c0.81,3.13,3.04,4.83,6.26,5.07
		c3.76,0.29,6.58-1.31,8.89-4.08c1.35-1.61,2.39-3.41,3.28-5.3c0.15-0.31,0.32-0.4,0.65-0.4c5.1,0.08,10.19,0.16,15.29,0.23
		c1.17,0.02,1.18,0.03,0.79,1.11c-1.61,4.47-3.7,8.68-6.71,12.4c-4.1,5.06-9.33,8.33-15.66,9.85c-3.87,0.93-7.8,1.22-11.76,0.94
		c-4.04-0.29-7.91-1.24-11.45-3.31c-4.81-2.8-7.79-6.97-9.18-12.31c-0.73-2.82-0.9-5.7-0.81-8.61c0.13-4.41,0.75-8.74,1.94-12.98
		c2.21-7.83,5.99-14.77,11.81-20.51c4.88-4.82,10.63-8.14,17.35-9.72c1.88-0.44,3.78-0.73,5.7-0.84c0.17-0.01,0.35,0.03,0.51-0.08
		C292.73,14.78,294,14.78,295.28,14.78z"/>
	<path d="M195.62,92.79c58.23,0,116.45,0,174.68,0c0.74,0,0.74,0,0.49,0.69c-0.42,1.18-1.02,2.26-1.79,3.24
		c-0.97,1.22-2.35,1.69-3.8,1.99c-0.8,0.17-1.61,0.2-2.42,0.21c-4.86,0-9.72,0-14.58,0.02c-6.16,0.02-12.33,0.06-18.49,0.09
		c-3.76,0.02-7.52,0.06-11.28,0.09c-5.64,0.06-11.28,0.12-16.92,0.19c-4.43,0.05-8.86,0.12-13.28,0.19
		c-3.68,0.06-7.36,0.12-11.04,0.18c-5.18,0.09-10.35,0.19-15.53,0.3c-4.33,0.09-8.66,0.18-12.99,0.28
		c-5.14,0.12-10.29,0.25-15.43,0.39c-4.55,0.12-9.11,0.25-13.66,0.38c-4.25,0.12-8.5,0.25-12.75,0.39
		c-3.77,0.12-7.54,0.24-11.32,0.37c-4.58,0.16-9.17,0.31-13.75,0.48c-4.06,0.15-8.12,0.31-12.17,0.47
		c-4.63,0.19-9.26,0.38-13.89,0.58c-4.22,0.18-8.43,0.37-12.65,0.57c-4.69,0.22-9.38,0.44-14.07,0.67
		c-3.69,0.18-7.38,0.37-11.07,0.57c-4.07,0.22-8.14,0.44-12.21,0.67c-3.26,0.18-6.52,0.37-9.77,0.57
		c-4.61,0.28-9.22,0.56-13.82,0.86c-4.29,0.28-8.58,0.56-12.87,0.86c-4.45,0.31-8.89,0.62-13.34,0.96
		c-4.09,0.3-8.19,0.62-12.28,0.95c-4.03,0.33-8.06,0.69-12.09,1.01c-1.46,0.12-2.91,0.33-4.38,0.3c-1.63-0.03-3.16-0.41-4.39-1.57
		c-1.17-1.1-1.52-2.53-1.63-4.06c-0.29-3.98-0.57-7.96-0.86-11.94c-0.07-0.96-0.07-0.96,0.89-0.96
		C79.32,92.79,137.47,92.79,195.62,92.79z"/>
	<path d="M122.15,41.15c-0.52,1.64-1.02,3.19-1.52,4.75c-1.04,3.25-2.08,6.5-3.11,9.76c-0.11,0.36-0.25,0.48-0.65,0.48
		c-7.1-0.02-14.21-0.01-21.32-0.02c-0.39,0-0.56,0.09-0.67,0.5c-0.93,3.37-1.88,6.73-2.85,10.09c-0.12,0.43-0.03,0.5,0.38,0.5
		c9.13-0.01,18.26-0.01,27.38-0.01c0.19,0,0.38,0,0.63,0c-0.32,1.01-0.63,1.97-0.93,2.93c-0.7,2.19-1.39,4.39-2.1,6.58
		c-1.06,3.26-3.84,5.35-7.28,5.47c-0.22,0.01-0.45,0.01-0.67,0.01c-13.59,0-27.18,0-40.77,0c-0.19,0-0.38,0-0.63,0
		c0.34-1.18,0.66-2.32,0.99-3.46c2.63-9.11,5.26-18.22,7.89-27.33c2.91-10.1,5.8-20.21,8.75-30.3c0.83-2.85,2.95-4.39,5.75-5.08
		c0.68-0.17,1.38-0.2,2.09-0.2c13.33,0,26.67,0,40-0.01c0.44,0,0.48,0.09,0.35,0.49c-0.98,3.07-1.92,6.15-2.91,9.22
		c-0.92,2.86-3.64,4.96-6.63,5.21c-0.65,0.05-1.3,0.07-1.96,0.07c-6.44,0-12.87,0-19.31-0.01c-0.47,0-0.67,0.1-0.81,0.59
		c-0.85,3.06-1.75,6.11-2.62,9.16c-0.17,0.6-0.33,0.6,0.46,0.6c7.15,0,14.31,0,21.46,0C121.73,41.15,121.9,41.15,122.15,41.15z"/>
	<path d="M406.34,15.82c-0.43,1.51-0.84,2.98-1.26,4.44c-0.59,2.08-1.2,4.15-1.79,6.23c-0.83,2.92-3.54,5.19-6.57,5.48
		c-1.57,0.15-3.15,0.06-4.73,0.08c-1.75,0.02-3.5,0.01-5.26,0c-0.33,0-0.49,0.07-0.59,0.43c-4.15,14.7-8.31,29.4-12.47,44.1
		c-0.81,2.86-2.87,4.4-5.57,5.25c-0.85,0.27-1.74,0.37-2.64,0.37c-4.35,0-8.7-0.01-13.05,0.01c-0.46,0-0.52-0.09-0.39-0.53
		c4.66-16.01,9.31-32.02,13.97-48.03c0.12-0.41,0.24-0.82,0.37-1.23c0.08-0.24,0.06-0.39-0.26-0.36c-0.27,0.03-0.54,0.01-0.81,0.01
		c-5.27,0-10.55,0-15.82,0c-0.55,0-0.55,0-0.4-0.54c0.99-3.48,1.94-6.98,3-10.44c0.91-2.96,3.03-4.6,6.04-5.15
		c0.54-0.1,1.08-0.1,1.62-0.1c15.36,0,30.71,0,46.07,0C405.98,15.82,406.14,15.82,406.34,15.82z"/>
	<path d="M317.08,82.19c-2.26,0-4.52-0.01-6.79,0.01c-0.43,0-0.45-0.11-0.34-0.48c4.38-15,8.75-30,13.12-45.01
		c1.5-5.15,2.99-10.31,4.51-15.46c0.92-3.13,3.13-4.78,6.27-5.34c0.57-0.1,1.14-0.1,1.71-0.1c4.19,0,8.38,0,12.57,0
		c0.79,0,0.63,0.03,0.47,0.6c-5.42,19.13-10.84,38.26-16.26,57.39c-0.24,0.86-0.52,1.7-0.73,2.57c-0.59,2.49-2.22,4.05-4.47,5.05
		c-1.19,0.53-2.45,0.77-3.76,0.77C321.28,82.19,319.18,82.19,317.08,82.19z"/>
	<path d="M191.94,30.5c-1.49-5.41-4.65-9.48-9.72-11.99c-3.84-1.9-7.97-2.63-12.2-2.67c-6.74-0.06-13.48-0.02-20.21-0.03
		c-0.56,0-1.11,0-1.67,0.1c-3.19,0.59-5.46,2.24-6.39,5.46c-2.99,10.41-5.98,20.82-8.97,31.23c-2.77,9.65-5.54,19.29-8.31,28.94
		c-0.17,0.61-0.34,0.64,0.48,0.64c4.91,0,9.81,0,14.72,0c1.58,0,3.15,0.01,4.73,0c3.61-0.04,7.23,0.11,10.84-0.16
		c3.49-0.27,6.91-0.88,10.24-1.94c6.95-2.22,12.83-6.05,17.49-11.69c4.39-5.31,7.09-11.42,8.59-18.09
		c0.76-3.41,1.15-6.86,1.28-10.35C192.97,36.76,192.79,33.6,191.94,30.5z M173.1,44.97c-0.56,3.78-1.58,7.42-3.24,10.87
		c-1.68,3.48-3.88,6.53-7.12,8.74c-2.65,1.8-5.6,2.68-8.8,2.73c-2.05,0.03-4.11,0.01-6.23,0.01c0.53-1.84,1.04-3.62,1.55-5.41
		c2.45-8.5,4.9-17,7.35-25.49c0.5-1.74,1.01-3.48,1.5-5.22c0.08-0.27,0.17-0.39,0.48-0.39c2.05,0.05,4.11-0.09,6.16,0.12
		c2.2,0.22,4.3,0.73,6.08,2.14c1.54,1.22,2.34,2.87,2.58,4.79C173.7,40.23,173.44,42.6,173.1,44.97z"/>
	<path d="M247.88,70.02c0-17.89,0-35.77,0-53.66c0-0.31,0.05-0.56-0.44-0.56c-6.48,0.02-12.97-0.04-19.45,0.04
		c-4.1,0.05-7.32,1.8-9.51,5.38c-12.32,20.03-24.67,40.05-37.01,60.07c-0.17,0.27-0.33,0.54-0.54,0.89c0.25,0,0.4,0,0.56,0
		c7.07,0,14.14,0,21.22,0.01c0.41,0,0.62-0.12,0.8-0.48c1.67-3.21,3.81-6.05,6.51-8.47c5.02-4.51,10.98-6.96,17.61-7.95
		c0.4-0.06,0.55,0.01,0.54,0.47c-0.04,5.3-0.06,10.6-0.1,15.9c0,0.4,0.07,0.54,0.51,0.53c6.26-0.02,12.52-0.02,18.78,0
		c0.42,0,0.53-0.1,0.53-0.52C247.87,77.79,247.88,73.91,247.88,70.02z M228.44,35.7c-0.03,7.92-0.06,15.85-0.07,23.77
		c0,0.34-0.01,0.49-0.45,0.42c-2.03-0.32-4.06-0.63-6.12-0.6c-2.09,0.03-4.16,0.27-6.18,0.8c-0.16,0.04-0.33,0.07-0.58,0.13
		c4.47-8.39,8.89-16.7,13.32-25.01c0.03,0,0.06,0.01,0.09,0.01C228.44,35.38,228.44,35.54,228.44,35.7z"/>
</g>
</svg>
