<?xml version="1.0" encoding="utf-8"?>
<!-- Generator: Adobe Illustrator 26.3.1, SVG Export Plug-In . SVG Version: 6.00 Build 0)  -->
<svg version="1.1" id="master-artboard" xmlns="http://www.w3.org/2000/svg" xmlns:xlink="http://www.w3.org/1999/xlink" x="0px"
	 y="0px" viewBox="0 0 1041.2 1041.2" style="enable-background:new 0 0 1041.2 1041.2;" xml:space="preserve">
<style type="text/css">
	.st0{fill:#FFFFFF;fill-opacity:0;}
</style>
<rect id="ee-background" class="st0" width="1024" height="1024"/>
<path d="M520.6,983.2c-253.7,0-461.5-208.9-461.5-462.6c0-57.1,10.2-111.1,29.5-162l270,543c3.1,7.1,8.2,13.2,16.3,13.2
	s13.2-6.1,16.3-13.2l124.3-278.1c1-3.1,3.1-6.1,6.1-6.1s4.1,3.1,6.1,6.1L652,901.6c3.1,7.1,8.2,13.2,16.3,13.2
	c8.2,0,13.2-6.1,16.3-13.2l270-543c19.4,50.9,29.5,104.9,29.5,162C982.1,774.3,774.3,983.2,520.6,983.2z M520.6,415.7
	c-3.1,0-4.1-3.1-6.1-6.1l-144.7-326C416.7,66.2,467.6,57,520.6,57c53,0,103.9,9.2,150.8,26.5l-144.7,326
	C524.7,413.6,523.7,415.7,520.6,415.7z M372.9,750.9c-3.1,0-4.1-3.1-6.1-6.1L132.4,272c41.8-64.2,97.8-118.2,166.1-155.9l169.1,376
	c2,6.1,7.1,8.2,12.2,8.2h81.5c6.1,0,10.2-1,13.2-8.2l169.1-376C811,153.8,868,207.8,909.8,272L673.4,744.7c-1,3.1-3.1,6.1-6.1,6.1
	c-3.1,0-4.1-3.1-6.1-6.1L572.6,543c-3.1-7.1-7.1-8.2-13.2-8.2h-81.5c-6.1,0-10.2,1-13.2,8.2L379,744.7
	C378,747.8,375.9,750.9,372.9,750.9z M520.6,1030c282.2,0,509.4-227.2,509.4-509.4S802.8,11.2,520.6,11.2S11.2,238.4,11.2,520.6
	S238.4,1030,520.6,1030z"/>
</svg>
